<svg width="473" height="291" viewBox="0 0 473 291" fill="none" xmlns="http://www.w3.org/2000/svg">
<path d="M211.907 116.26H237.277V124.716H221.209V140.361H233.979V148.817H221.209V166.999H237.277V175.455H211.907V116.26Z" fill="#FFF8E5"/>
<path d="M182.838 116.26H192.14V166.999H207.446V175.455H182.838V116.26Z" fill="#FFF8E5"/>
<path d="M148.649 116.26H162.686C167.478 116.26 170.974 117.387 173.172 119.642C175.371 121.841 176.47 125.252 176.47 129.875V132.242C176.47 135.287 175.963 137.767 174.948 139.684C173.99 141.601 172.496 142.982 170.466 143.828V143.997C175.089 145.576 177.401 149.691 177.401 156.343V161.417C177.401 165.984 176.189 169.479 173.764 171.903C171.397 174.271 167.901 175.455 163.278 175.455H148.649V116.26ZM161.587 140.361C163.447 140.361 164.829 139.882 165.731 138.923C166.689 137.965 167.168 136.358 167.168 134.103V130.805C167.168 128.663 166.774 127.112 165.984 126.154C165.252 125.195 164.068 124.716 162.433 124.716H157.951V140.361H161.587ZM163.278 166.999C164.913 166.999 166.125 166.576 166.915 165.73C167.704 164.828 168.099 163.306 168.099 161.164V156.005C168.099 153.299 167.619 151.439 166.661 150.424C165.759 149.353 164.237 148.817 162.094 148.817H157.951V166.999H163.278Z" fill="#FFF8E5"/>
<path d="M132.38 116.26H141.682V175.455H132.38V116.26Z" fill="#FFF8E5"/>
<path d="M113.009 176.299C108.498 176.299 105.088 175.03 102.776 172.493C100.465 169.9 99.3091 166.207 99.3091 161.415V158.033H108.104V162.092C108.104 165.925 109.711 167.842 112.924 167.842C114.503 167.842 115.686 167.391 116.476 166.489C117.321 165.531 117.744 164.009 117.744 161.923C117.744 159.442 117.18 157.272 116.053 155.411C114.925 153.494 112.839 151.211 109.795 148.561C105.962 145.179 103.284 142.135 101.761 139.428C100.239 136.666 99.4782 133.565 99.4782 130.126C99.4782 125.447 100.662 121.839 103.03 119.302C105.398 116.709 108.837 115.412 113.347 115.412C117.801 115.412 121.155 116.709 123.41 119.302C125.721 121.839 126.877 125.503 126.877 130.295V132.748H118.082V129.704C118.082 127.674 117.688 126.208 116.899 125.306C116.109 124.348 114.954 123.869 113.431 123.869C110.331 123.869 108.78 125.757 108.78 129.534C108.78 131.677 109.344 133.678 110.472 135.539C111.656 137.399 113.77 139.654 116.814 142.304C120.704 145.686 123.382 148.759 124.848 151.521C126.313 154.284 127.046 157.525 127.046 161.246C127.046 166.095 125.834 169.815 123.41 172.409C121.042 175.002 117.575 176.299 113.009 176.299Z" fill="#FFF8E5"/>
<path d="M84.6475 116.26H93.9496V175.455H84.6475V116.26Z" fill="#FFF8E5"/>
<path d="M49.9047 116.26H59.2913L65.38 162.178H65.5491L71.6378 116.26H80.1788L71.215 175.455H58.8685L49.9047 116.26Z" fill="#FFF8E5"/>
<path d="M16.2689 116.26H27.9389L36.9873 151.692H37.1564V116.26H45.4437V175.455H35.8879L24.7254 132.242H24.5563V175.455H16.2689V116.26Z" fill="#FFF8E5"/>
<path d="M0 116.26H9.30212V175.455H0V116.26Z" fill="#FFF8E5"/>
<path d="M458.962 176.299C454.452 176.299 451.041 175.03 448.73 172.493C446.418 169.9 445.263 166.207 445.263 161.415V158.033H454.057V162.092C454.057 165.925 455.664 167.842 458.878 167.842C460.456 167.842 461.64 167.391 462.429 166.489C463.275 165.531 463.698 164.009 463.698 161.923C463.698 159.442 463.134 157.272 462.007 155.411C460.879 153.494 458.793 151.211 455.749 148.561C451.915 145.179 449.237 142.135 447.715 139.428C446.193 136.666 445.432 133.565 445.432 130.126C445.432 125.447 446.616 121.839 448.984 119.302C451.351 116.709 454.79 115.412 459.3 115.412C463.754 115.412 467.109 116.709 469.364 119.302C471.675 121.839 472.831 125.503 472.831 130.295V132.748H464.036V129.704C464.036 127.674 463.641 126.208 462.852 125.306C462.063 124.348 460.907 123.869 459.385 123.869C456.284 123.869 454.734 125.757 454.734 129.534C454.734 131.677 455.298 133.678 456.425 135.539C457.609 137.399 459.723 139.654 462.768 142.304C466.658 145.686 469.335 148.759 470.801 151.521C472.267 154.284 473 157.525 473 161.246C473 166.095 471.788 169.815 469.364 172.409C466.996 175.002 463.529 176.299 458.962 176.299Z" fill="#FFF8E5"/>
<path d="M427.029 176.299C422.519 176.299 419.08 175.03 416.712 172.493C414.344 169.9 413.16 166.207 413.16 161.415V130.295C413.16 125.503 414.344 121.839 416.712 119.302C419.08 116.709 422.519 115.412 427.029 115.412C431.539 115.412 434.978 116.709 437.346 119.302C439.713 121.839 440.897 125.503 440.897 130.295V135.369H432.103V129.704C432.103 125.814 430.496 123.869 427.282 123.869C424.069 123.869 422.462 125.814 422.462 129.704V162.092C422.462 165.925 424.069 167.842 427.282 167.842C430.496 167.842 432.103 165.925 432.103 162.092V150.506H427.451V142.05H440.897V161.415C440.897 166.207 439.713 169.9 437.346 172.493C434.978 175.03 431.539 176.299 427.029 176.299Z" fill="#FFF8E5"/>
<path d="M377.748 116.26H389.418L398.466 151.692H398.635V116.26H406.923V175.455H397.367L386.204 132.242H386.035V175.455H377.748V116.26Z" fill="#FFF8E5"/>
<path d="M361.479 116.26H370.781V175.455H361.479V116.26Z" fill="#FFF8E5"/>
<path d="M327.372 116.26H341.156C345.948 116.26 349.444 117.387 351.643 119.642C353.841 121.841 354.941 125.252 354.941 129.875V133.511C354.941 139.656 352.911 143.546 348.852 145.181V145.35C351.107 146.027 352.685 147.408 353.587 149.494C354.546 151.58 355.025 154.37 355.025 157.866V168.267C355.025 169.958 355.081 171.34 355.194 172.411C355.307 173.426 355.589 174.44 356.04 175.455H346.569C346.23 174.497 346.005 173.595 345.892 172.749C345.779 171.903 345.723 170.381 345.723 168.182V157.358C345.723 154.652 345.272 152.764 344.37 151.692C343.524 150.621 342.03 150.086 339.888 150.086H336.675V175.455H327.372V116.26ZM340.057 141.629C341.918 141.629 343.299 141.15 344.201 140.192C345.159 139.233 345.638 137.626 345.638 135.371V130.805C345.638 128.663 345.244 127.112 344.455 126.154C343.722 125.195 342.538 124.716 340.903 124.716H336.675V141.629H340.057Z" fill="#FFF8E5"/>
<path d="M303.842 124.716H294.117V116.26H322.869V124.716H313.144V175.455H303.842V124.716Z" fill="#FFF8E5"/>
<path d="M277.198 176.299C272.688 176.299 269.277 175.03 266.965 172.493C264.654 169.9 263.498 166.207 263.498 161.415V158.033H272.293V162.092C272.293 165.925 273.9 167.842 277.113 167.842C278.692 167.842 279.876 167.391 280.665 166.489C281.51 165.531 281.933 164.009 281.933 161.923C281.933 159.442 281.37 157.272 280.242 155.411C279.114 153.494 277.029 151.211 273.984 148.561C270.151 145.179 267.473 142.135 265.951 139.428C264.428 136.666 263.667 133.565 263.667 130.126C263.667 125.447 264.851 121.839 267.219 119.302C269.587 116.709 273.026 115.412 277.536 115.412C281.99 115.412 285.344 116.709 287.599 119.302C289.911 121.839 291.066 125.503 291.066 130.295V132.748H282.272V129.704C282.272 127.674 281.877 126.208 281.088 125.306C280.298 124.348 279.143 123.869 277.62 123.869C274.52 123.869 272.969 125.757 272.969 129.534C272.969 131.677 273.533 133.678 274.661 135.539C275.845 137.399 277.959 139.654 281.003 142.304C284.893 145.686 287.571 148.759 289.037 151.521C290.502 154.284 291.235 157.525 291.235 161.246C291.235 166.095 290.023 169.815 287.599 172.409C285.231 175.002 281.764 176.299 277.198 176.299Z" fill="#FFF8E5"/>
<path d="M245.629 105.773H134.861L30.3049 36.6281L85.6824 0L245.629 105.773Z" fill="#FFF8E5"/>
<path d="M469.662 253.92L414.272 290.548L254.325 184.775H365.106L469.662 253.92Z" fill="#FFF8E5"/>
<path d="M469.662 36.6281L365.106 105.773H254.325L414.272 0L469.662 36.6281Z" fill="#FFF8E5"/>
<path d="M245.629 184.775L85.6824 290.548L30.3049 253.92L134.861 184.775H245.629Z" fill="#FFF8E5"/>
<path d="M249.984 151.412C253.379 151.412 256.131 148.66 256.131 145.265C256.131 141.869 253.379 139.117 249.984 139.117C246.589 139.117 243.836 141.869 243.836 145.265C243.836 148.66 246.589 151.412 249.984 151.412Z" fill="#FFF8E5"/>
</svg>
