<?xml version="1.0" encoding="UTF-8"?>
<svg id="Layer_2" data-name="Layer 2" xmlns="http://www.w3.org/2000/svg" viewBox="0 0 396.65 250.82">
  <defs>
    <style>
      .cls-1 {
        fill: #404040;
      }

      .cls-2 {
        font-family: FranklinGothicCondensed, 'Franklin Gothic';
        font-size: 67.61px;
      }

      .cls-2, .cls-3 {
        fill: #fff;
      }

      .cls-4 {
        font-family: Mandate-Regular, Mandate;
        font-size: 44.97px;
      }

      .cls-4, .cls-5 {
        fill: #221f20;
      }

      .cls-6 {
        fill: none;
        stroke: #fff;
        stroke-miterlimit: 10;
        stroke-width: .5px;
      }

      .cls-7 {
        fill: #f9d347;
      }
    </style>
  </defs>
  <g id="Layer_1-2" data-name="Layer 1">
    <g>
      <path class="cls-7" d="M374,250.78l-93.39-22.44c-2.68-.64-4.63-3.11-4.77-6.06l-3.11-62.03c.32-3.58,3.32-6.21,6.64-5.83l111.98,6.01c3.12.17,5.49,3.02,5.29,6.37l-14.92,77.87c-.74,3.85-4.09,6.51-7.72,6.12Z"/>
      <path class="cls-7" d="M156.53,25.45l-115.15-.64c-3.31-.02-6.28,2.3-7.29,5.69L12.69,101.81c-.65,4.26,2.09,8.18,6.06,8.69l132.08,25.1c3.68.7,7.25-1.94,7.99-5.89l4.95-94.92c.24-4.7-2.89-8.74-7.24-9.33Z"/>
      <path class="cls-5" d="M360.15,235.3c-30.38-7.35-61.22-12.49-91.65-19.61-2.17-.53-4.61-1.09-6.27-2.66-2.08-1.8-3.26-4.38-3.45-6.94,0,0-.21-5.34-.21-5.34-1.03-19.05-3.55-38.01-4.11-57.07.03-5.88,5.56-10.54,11.36-8.84,2.15.82,4.36.99,6.62,1.15,5.44.49,10.9.71,16.37.89,26.87.91,55.03,1.38,81.94,2.47,1.71.09,5.43.26,7.16.4,5.26.28,9.22,5.41,8.65,10.44-2.74,12.91-7.08,31.35-9.94,44.44-1.67,7.33-3.27,14.66-4.83,22.01l-2.26,11.04c-.58,4.44-4.79,8.26-9.4,7.63h0ZM360.61,232.62c3.17.27,5.85-2.39,6.21-5.47,0,0,1.98-11.09,1.98-11.09,1.27-7.4,2.49-14.81,3.65-22.24,1.92-13.12,5.18-31.57,7.08-44.51,0,0-.06.46-.06.46-.04-1.29-.97-2.23-1.69-2.27,0,0-3.37-.14-3.37-.14-33.89-1.9-68.41-5.93-102.29-7.43-2.34-.06-4.75-.21-7.01.55-1.15.81-1.24,2.21-1.39,3.37,0,0,.01-.65.01-.65,1.47,20.32.59,40.75,1.86,61.09,0,0,.05.65.05.65,0,0,.02.32.02.32.09.92.55,1.81,1.19,2.26,31.26,7.98,62.34,17.45,93.75,25.09h0Z"/>
      <path class="cls-5" d="M148.46,5.69c-37.38-.26-74.8,1.74-112.16,1.71-.76.07-3.72-.29-4.5.26-1.17.48-2.15,1.76-2.5,3.11,0,0-.24.74-.24.74-7.26,23.32-12.45,47.26-19.9,70.52,0,0,.14-.63.14-.63-.19,1.59-.08,3.06.9,4.52.22.27.58.58.92.71,2.42,1.21,5.07,1.71,7.69,2.27,39.86,7.9,81.15,13.54,121.12,21.05,0,0,2.41.48,2.41.48,0,0,1.21.24,1.21.24,1.71.44,3.39-.99,3.8-2.72,0,0-.05.46-.05.46,1.41-15.53,2.87-38.09,4.24-53.86.73-8.98,1.39-17.96,2-26.94l.84-13.48c.46-3.82-2-7.85-5.92-8.43h0ZM148.65,2.97c5.38.59,9.09,6.09,8.5,11.29,0,0-.56,13.49-.56,13.49-.32,9-.6,18-.81,27-.56,16.09-.88,38.61-1.44,54.47-.76,5.62-6.42,10.17-12.23,9.05-2.09-.35-6.3-1.17-8.45-1.59-31.66-6.38-64.59-13.68-96.17-20.23-6.42-1.34-12.84-2.63-19.31-3.66-2.44-.38-4.86-.92-7.34-.72-7.02.49-12.09-5.96-10.57-12.72C6.46,57.35,14.53,35.9,21.18,14.02c0,0,1.78-6.13,1.78-6.13.9-2.77,2.9-5.28,5.67-6.68C30.9-.08,33.79,0,36.35,0c37.46.39,74.84,2.81,112.3,2.97h0Z"/>
      <g>
        <path class="cls-1" d="M148.97,180.23h-33.7c-1.44,0-2.66-1.03-2.92-2.44l-15.43-86.12c-.32-1.77,1.01-3.42,2.81-3.48l65.14-2.36c1.89-.07,3.36,1.63,3.02,3.49l-16.01,88.48c-.26,1.41-1.48,2.44-2.92,2.44Z"/>
        <rect class="cls-1" x="130.02" y="75.16" width="4.84" height="115.59" rx="1.53" ry="1.53"/>
        <path class="cls-6" d="M144.99,185.74h-33.7c-1.44,0-2.66-1.03-2.92-2.44l-15.43-86.12c-.32-1.77,1.01-3.42,2.81-3.48l65.14-2.36c1.89-.07,3.36,1.63,3.02,3.49l-16.01,88.48c-.26,1.41-1.48,2.44-2.92,2.44Z"/>
      </g>
      <text class="cls-2" transform="translate(105.53 154.28)"><tspan x="0" y="0">W</tspan></text>
      <g>
        <path class="cls-1" d="M227.2,189.34l-65.14,4.85c-1.42.11-2.57-1.14-2.35-2.54l14.15-92.25c.17-1.09,1.11-1.89,2.21-1.88l36.48.36c1.07.01,1.99.79,2.16,1.85l14.5,87.05c.21,1.28-.72,2.48-2.02,2.57Z"/>
        <rect class="cls-1" x="192.03" y="88.15" width="4.84" height="115.59" rx="1.75" ry="1.75"/>
        <path class="cls-6" d="M224.77,196.07l-65.14,4.85c-1.42.11-2.57-1.14-2.35-2.54l14.15-92.25c.17-1.09,1.11-1.89,2.21-1.88l36.48.36c1.07.01,1.99.79,2.16,1.85l14.5,87.05c.21,1.28-.72,2.48-2.02,2.57Z"/>
      </g>
      <text class="cls-2" transform="translate(185.05 167.27)"><tspan x="0" y="0">I</tspan></text>
      <g>
        <path class="cls-1" d="M273.61,180.3l-34.69-.57c-1.47-.02-2.7-1.09-2.94-2.54l-14.21-85.26c-.3-1.8,1.04-3.45,2.86-3.53l60.9-2.68c1.89-.08,3.4,1.57,3.14,3.44l-12,88.5c-.21,1.52-1.52,2.65-3.06,2.63Z"/>
        <rect class="cls-1" x="252.76" y="75.16" width="4.84" height="115.59" rx="1.48" ry="1.48"/>
        <path class="cls-6" d="M271.16,182.72l-34.69-.57c-1.47-.02-2.7-1.09-2.94-2.54l-14.21-85.26c-.3-1.8,1.04-3.45,2.86-3.53l60.9-2.68c1.89-.08,3.4,1.57,3.14,3.44l-12,88.5c-.21,1.52-1.52,2.65-3.06,2.63Z"/>
      </g>
      <text class="cls-2" transform="translate(238.92 154.28)"><tspan x="0" y="0">F</tspan></text>
      <g>
        <path class="cls-1" d="M348.9,189.86l-62.21,4.15c-2.09.14-3.77-1.7-3.45-3.77l13.86-89.74c.25-1.59,1.61-2.77,3.23-2.77l34.84-.11c1.62,0,2.99,1.17,3.24,2.76l13.5,85.7c.3,1.9-1.1,3.65-3.02,3.78Z"/>
        <rect class="cls-1" x="315.12" y="88.15" width="4.84" height="115.59" rx="1.29" ry="1.29"/>
        <path class="cls-6" d="M346.44,194.47l-62.21,4.15c-2.09.14-3.77-1.7-3.45-3.77l13.86-89.74c.25-1.59,1.61-2.77,3.23-2.77l34.84-.11c1.62,0,2.99,1.17,3.24,2.76l13.5,85.7c.3,1.9-1.1,3.65-3.02,3.78Z"/>
      </g>
      <text class="cls-2" transform="translate(300.64 167.27)"><tspan x="0" y="0">E</tspan></text>
      <text class="cls-4" transform="translate(40.18 86.91) rotate(-9.21)"><tspan x="0" y="0">Mrs.</tspan></text>
      <g>
        <polygon class="cls-3" points="138.1 41.89 129.69 34.69 121.28 41.89 128.49 33.48 121.28 25.07 129.69 32.27 138.1 25.07 130.9 33.48 138.1 41.89"/>
        <polygon class="cls-3" points="143.63 33.58 130.35 34.78 129.55 54.76 128.75 34.78 115.47 33.58 128.75 32.38 129.55 12.4 130.35 32.38 143.63 33.58"/>
        <circle class="cls-3" cx="129.55" cy="12.4" r="1.29"/>
        <circle class="cls-3" cx="129.69" cy="54.76" r="1.29"/>
        <circle class="cls-3" cx="144.57" cy="33.48" r="1.29"/>
        <circle class="cls-3" cx="115.47" cy="33.58" r="1.29"/>
      </g>
      <g>
        <polygon class="cls-3" points="369.34 172.21 364.34 167.93 359.34 172.21 363.62 167.21 359.34 162.21 364.34 166.5 369.34 162.21 365.05 167.21 369.34 172.21"/>
        <polygon class="cls-3" points="372.62 167.27 364.73 167.99 364.25 179.86 363.78 167.99 355.88 167.27 363.78 166.56 364.25 154.68 364.73 166.56 372.62 167.27"/>
        <circle class="cls-3" cx="364.25" cy="154.68" r=".77"/>
        <circle class="cls-3" cx="364.34" cy="179.86" r=".77"/>
        <circle class="cls-3" cx="373.18" cy="167.21" r=".77"/>
        <circle class="cls-3" cx="355.88" cy="167.27" r=".77"/>
      </g>
    </g>
  </g>
</svg>