<svg width="139" height="41" viewBox="0 0 139 41" fill="none" xmlns="http://www.w3.org/2000/svg">
<rect x="1" y="1" width="137" height="39" rx="19.5" fill="#00B0A9" stroke="black" stroke-width="2"/>
<mask id="path-2-outside-1_667_94" maskUnits="userSpaceOnUse" x="22" y="10" width="67" height="21" fill="black">
<rect fill="white" x="22" y="10" width="67" height="21"/>
<path d="M23.1175 29V11.9141H29.1702L31.0159 21.4883H31.0628L33.2484 11.9141H39.1253V29H34.807V16.3789H34.7601L31.807 29H29.1937L26.4808 15.9453H26.4339V29H23.1175ZM43.3471 20.457C43.3471 19.3008 43.4604 18.1992 43.687 17.1523C43.9174 16.1055 44.2905 15.1582 44.8061 14.3105C45.3256 13.4629 46.017 12.7949 46.8803 12.3066C47.7436 11.8184 48.7827 11.5742 49.9975 11.5742C51.2202 11.5742 52.2631 11.8203 53.1264 12.3125C53.9897 12.8008 54.6772 13.4668 55.1889 14.3105C55.7045 15.1504 56.0756 16.0898 56.3022 17.1289C56.5288 18.168 56.642 19.2773 56.642 20.457C56.642 22.043 56.4291 23.502 56.0034 24.834C55.5815 26.166 54.8745 27.25 53.8823 28.0859C52.8901 28.918 51.5952 29.334 49.9975 29.334C48.3959 29.334 47.0991 28.918 46.1069 28.0859C45.1147 27.25 44.4057 26.166 43.9799 24.834C43.558 23.502 43.3471 22.043 43.3471 20.457ZM48.0053 20.457C48.0053 21.8711 48.0366 22.9492 48.0991 23.6914C48.1616 24.4297 48.3373 25.0273 48.6264 25.4844C48.9155 25.9414 49.3725 26.1699 49.9975 26.1699C50.6225 26.1699 51.0795 25.9414 51.3686 25.4844C51.6577 25.0273 51.8334 24.4297 51.8959 23.6914C51.9584 22.9492 51.9897 21.8711 51.9897 20.457C51.9897 19.3789 51.976 18.5391 51.9487 17.9375C51.9252 17.3359 51.853 16.7891 51.7319 16.2969C51.6108 15.8008 51.4116 15.418 51.1342 15.1484C50.8569 14.8789 50.478 14.7441 49.9975 14.7441C49.517 14.7441 49.1381 14.8789 48.8608 15.1484C48.5873 15.418 48.3901 15.7969 48.269 16.2852C48.1518 16.7734 48.0776 17.3223 48.0463 17.9316C48.019 18.5371 48.0053 19.3789 48.0053 20.457ZM60.8697 29V11.9141H67.3033C68.4088 11.9141 69.3951 12.0898 70.2623 12.4414C71.1295 12.7891 71.8091 13.3281 72.3013 14.0586C72.7935 14.7852 73.0396 15.6855 73.0396 16.7598C73.0396 17.6504 72.7779 18.4492 72.2545 19.1562C71.731 19.8594 71.0416 20.373 70.1861 20.6973L73.0396 29H68.7681L66.6295 21.6055H65.1939V29H60.8697ZM65.1939 15.0781V18.8691H66.0318C67.8248 18.8691 68.7213 18.2461 68.7213 17C68.7213 16.1953 68.4771 15.6738 67.9888 15.4355C67.5045 15.1973 66.813 15.0781 65.9146 15.0781H65.1939ZM77.0856 29V11.9141H87.8376V15.2246H81.4098V18.6816H85.7282V21.9922H81.4098V25.543H87.8376V29H77.0856Z"/>
</mask>
<path d="M23.1175 29V11.9141H29.1702L31.0159 21.4883H31.0628L33.2484 11.9141H39.1253V29H34.807V16.3789H34.7601L31.807 29H29.1937L26.4808 15.9453H26.4339V29H23.1175ZM43.3471 20.457C43.3471 19.3008 43.4604 18.1992 43.687 17.1523C43.9174 16.1055 44.2905 15.1582 44.8061 14.3105C45.3256 13.4629 46.017 12.7949 46.8803 12.3066C47.7436 11.8184 48.7827 11.5742 49.9975 11.5742C51.2202 11.5742 52.2631 11.8203 53.1264 12.3125C53.9897 12.8008 54.6772 13.4668 55.1889 14.3105C55.7045 15.1504 56.0756 16.0898 56.3022 17.1289C56.5288 18.168 56.642 19.2773 56.642 20.457C56.642 22.043 56.4291 23.502 56.0034 24.834C55.5815 26.166 54.8745 27.25 53.8823 28.0859C52.8901 28.918 51.5952 29.334 49.9975 29.334C48.3959 29.334 47.0991 28.918 46.1069 28.0859C45.1147 27.25 44.4057 26.166 43.9799 24.834C43.558 23.502 43.3471 22.043 43.3471 20.457ZM48.0053 20.457C48.0053 21.8711 48.0366 22.9492 48.0991 23.6914C48.1616 24.4297 48.3373 25.0273 48.6264 25.4844C48.9155 25.9414 49.3725 26.1699 49.9975 26.1699C50.6225 26.1699 51.0795 25.9414 51.3686 25.4844C51.6577 25.0273 51.8334 24.4297 51.8959 23.6914C51.9584 22.9492 51.9897 21.8711 51.9897 20.457C51.9897 19.3789 51.976 18.5391 51.9487 17.9375C51.9252 17.3359 51.853 16.7891 51.7319 16.2969C51.6108 15.8008 51.4116 15.418 51.1342 15.1484C50.8569 14.8789 50.478 14.7441 49.9975 14.7441C49.517 14.7441 49.1381 14.8789 48.8608 15.1484C48.5873 15.418 48.3901 15.7969 48.269 16.2852C48.1518 16.7734 48.0776 17.3223 48.0463 17.9316C48.019 18.5371 48.0053 19.3789 48.0053 20.457ZM60.8697 29V11.9141H67.3033C68.4088 11.9141 69.3951 12.0898 70.2623 12.4414C71.1295 12.7891 71.8091 13.3281 72.3013 14.0586C72.7935 14.7852 73.0396 15.6855 73.0396 16.7598C73.0396 17.6504 72.7779 18.4492 72.2545 19.1562C71.731 19.8594 71.0416 20.373 70.1861 20.6973L73.0396 29H68.7681L66.6295 21.6055H65.1939V29H60.8697ZM65.1939 15.0781V18.8691H66.0318C67.8248 18.8691 68.7213 18.2461 68.7213 17C68.7213 16.1953 68.4771 15.6738 67.9888 15.4355C67.5045 15.1973 66.813 15.0781 65.9146 15.0781H65.1939ZM77.0856 29V11.9141H87.8376V15.2246H81.4098V18.6816H85.7282V21.9922H81.4098V25.543H87.8376V29H77.0856Z" fill="#F9D347"/>
<path d="M23.1175 29H22.1175V30H23.1175V29ZM23.1175 11.9141V10.9141H22.1175V11.9141H23.1175ZM29.1702 11.9141L30.1522 11.7248L29.9959 10.9141H29.1702V11.9141ZM31.0159 21.4883L30.034 21.6776L30.1903 22.4883H31.0159V21.4883ZM31.0628 21.4883V22.4883H31.8603L32.0377 21.7108L31.0628 21.4883ZM33.2484 11.9141V10.9141H32.4509L32.2734 11.6915L33.2484 11.9141ZM39.1253 11.9141H40.1253V10.9141H39.1253V11.9141ZM39.1253 29V30H40.1253V29H39.1253ZM34.807 29H33.807V30H34.807V29ZM34.807 16.3789H35.807V15.3789H34.807V16.3789ZM34.7601 16.3789V15.3789H33.9671L33.7864 16.1511L34.7601 16.3789ZM31.807 29V30H32.6L32.7807 29.2278L31.807 29ZM29.1937 29L28.2146 29.2035L28.3801 30H29.1937V29ZM26.4808 15.9453L27.4599 15.7418L27.2943 14.9453H26.4808V15.9453ZM26.4339 15.9453V14.9453H25.4339V15.9453H26.4339ZM26.4339 29V30H27.4339V29H26.4339ZM23.1175 29H24.1175V11.9141H23.1175H22.1175V29H23.1175ZM23.1175 11.9141V12.9141H29.1702V11.9141V10.9141H23.1175V11.9141ZM29.1702 11.9141L28.1883 12.1034L30.034 21.6776L31.0159 21.4883L31.9979 21.299L30.1522 11.7248L29.1702 11.9141ZM31.0159 21.4883V22.4883H31.0628V21.4883V20.4883H31.0159V21.4883ZM31.0628 21.4883L32.0377 21.7108L34.2233 12.1366L33.2484 11.9141L32.2734 11.6915L30.0879 21.2657L31.0628 21.4883ZM33.2484 11.9141V12.9141H39.1253V11.9141V10.9141H33.2484V11.9141ZM39.1253 11.9141H38.1253V29H39.1253H40.1253V11.9141H39.1253ZM39.1253 29V28H34.807V29V30H39.1253V29ZM34.807 29H35.807V16.3789H34.807H33.807V29H34.807ZM34.807 16.3789V15.3789H34.7601V16.3789V17.3789H34.807V16.3789ZM34.7601 16.3789L33.7864 16.1511L30.8333 28.7722L31.807 29L32.7807 29.2278L35.7338 16.6067L34.7601 16.3789ZM31.807 29V28H29.1937V29V30H31.807V29ZM29.1937 29L30.1728 28.7965L27.4599 15.7418L26.4808 15.9453L25.5017 16.1488L28.2146 29.2035L29.1937 29ZM26.4808 15.9453V14.9453H26.4339V15.9453V16.9453H26.4808V15.9453ZM26.4339 15.9453H25.4339V29H26.4339H27.4339V15.9453H26.4339ZM26.4339 29V28H23.1175V29V30H26.4339V29ZM43.687 17.1523L42.7103 16.9373L42.7096 16.9408L43.687 17.1523ZM44.8061 14.3105L43.9535 13.788L43.9517 13.7908L44.8061 14.3105ZM53.1264 12.3125L52.6311 13.1812L52.6341 13.1829L53.1264 12.3125ZM55.1889 14.3105L54.3339 14.8291L54.3367 14.8338L55.1889 14.3105ZM56.0034 24.834L55.0508 24.5295L55.05 24.5321L56.0034 24.834ZM53.8823 28.0859L54.5248 28.8522L54.5266 28.8507L53.8823 28.0859ZM46.1069 28.0859L45.4626 28.8507L45.4643 28.8522L46.1069 28.0859ZM43.9799 24.834L43.0266 25.1359L43.0274 25.1385L43.9799 24.834ZM48.0991 23.6914L47.1026 23.7753L47.1026 23.7758L48.0991 23.6914ZM51.8959 23.6914L52.8924 23.7758L52.8924 23.7753L51.8959 23.6914ZM51.9487 17.9375L50.9494 17.9764L50.9497 17.9829L51.9487 17.9375ZM51.7319 16.2969L50.7604 16.534L50.7608 16.5358L51.7319 16.2969ZM48.8608 15.1484L48.1638 14.4313L48.1588 14.4363L48.8608 15.1484ZM48.269 16.2852L47.2984 16.0444L47.2966 16.0518L48.269 16.2852ZM48.0463 17.9316L47.0476 17.8804L47.0473 17.8865L48.0463 17.9316ZM43.3471 20.457H44.3471C44.3471 19.3663 44.4539 18.336 44.6643 17.3639L43.687 17.1523L42.7096 16.9408C42.4668 18.0625 42.3471 19.2353 42.3471 20.457H43.3471ZM43.687 17.1523L44.6636 17.3673C44.8723 16.4194 45.2065 15.5765 45.6604 14.8302L44.8061 14.3105L43.9517 13.7908C43.3744 14.7399 42.9626 15.7915 42.7103 16.9373L43.687 17.1523ZM44.8061 14.3105L45.6587 14.8331C46.0898 14.1297 46.6574 13.5816 47.3726 13.1771L46.8803 12.3066L46.388 11.4362C45.3767 12.0082 44.5614 12.7961 43.9535 13.788L44.8061 14.3105ZM46.8803 12.3066L47.3726 13.1771C48.0554 12.7909 48.9167 12.5742 49.9975 12.5742V11.5742V10.5742C48.6486 10.5742 47.4318 10.8459 46.388 11.4362L46.8803 12.3066ZM49.9975 11.5742V12.5742C51.0862 12.5742 51.9498 12.7928 52.6311 13.1812L53.1264 12.3125L53.6217 11.4438C52.5764 10.8478 51.3542 10.5742 49.9975 10.5742V11.5742ZM53.1264 12.3125L52.6341 13.1829C53.3491 13.5873 53.9114 14.1325 54.3339 14.8291L55.1889 14.3105L56.0439 13.792C55.443 12.8011 54.6302 12.0142 53.6187 11.4421L53.1264 12.3125ZM55.1889 14.3105L54.3367 14.8338C54.7891 15.5707 55.1206 16.4039 55.3251 17.3419L56.3022 17.1289L57.2792 16.9159C57.0307 15.7758 56.6199 14.7301 56.0411 13.7873L55.1889 14.3105ZM56.3022 17.1289L55.3251 17.3419C55.5349 18.3039 55.642 19.3413 55.642 20.457H56.642H57.642C57.642 19.2134 57.5226 18.032 57.2792 16.9159L56.3022 17.1289ZM56.642 20.457H55.642C55.642 21.9533 55.4413 23.3081 55.0508 24.5295L56.0034 24.834L56.9559 25.1385C57.417 23.6958 57.642 22.1327 57.642 20.457H56.642ZM56.0034 24.834L55.05 24.5321C54.6807 25.6981 54.0742 26.6166 53.2379 27.3212L53.8823 28.0859L54.5266 28.8507C55.6747 27.8834 56.4823 26.6339 56.9567 25.1359L56.0034 24.834ZM53.8823 28.0859L53.2397 27.3197C52.4668 27.9679 51.417 28.334 49.9975 28.334V29.334V30.334C51.7733 30.334 53.3134 29.8681 54.5248 28.8522L53.8823 28.0859ZM49.9975 29.334V28.334C48.5734 28.334 47.5219 27.9675 46.7494 27.3197L46.1069 28.0859L45.4643 28.8522C46.6762 29.8684 48.2184 30.334 49.9975 30.334V29.334ZM46.1069 28.0859L46.7512 27.3212C45.9143 26.6161 45.3055 25.6967 44.9324 24.5295L43.9799 24.834L43.0274 25.1385C43.5059 26.6353 44.3151 27.8839 45.4626 28.8507L46.1069 28.0859ZM43.9799 24.834L44.9333 24.5321C44.5462 23.3099 44.3471 21.9541 44.3471 20.457H43.3471H42.3471C42.3471 22.1318 42.5699 23.694 43.0266 25.1359L43.9799 24.834ZM48.0053 20.457H47.0053C47.0053 21.879 47.0365 22.9906 47.1026 23.7753L48.0991 23.6914L49.0955 23.6075C49.0366 22.9079 49.0053 21.8632 49.0053 20.457H48.0053ZM48.0991 23.6914L47.1026 23.7758C47.1739 24.6178 47.3805 25.3853 47.7813 26.0189L48.6264 25.4844L49.4716 24.9498C49.2941 24.6693 49.1492 24.2415 49.0955 23.6071L48.0991 23.6914ZM48.6264 25.4844L47.7813 26.0189C48.2848 26.815 49.0923 27.1699 49.9975 27.1699V26.1699V25.1699C49.6527 25.1699 49.5461 25.0678 49.4716 24.9498L48.6264 25.4844ZM49.9975 26.1699V27.1699C50.9027 27.1699 51.7102 26.815 52.2137 26.0189L51.3686 25.4844L50.5234 24.9498C50.4489 25.0678 50.3423 25.1699 49.9975 25.1699V26.1699ZM51.3686 25.4844L52.2137 26.0189C52.6145 25.3853 52.8211 24.6178 52.8924 23.7758L51.8959 23.6914L50.8995 23.6071C50.8458 24.2415 50.7009 24.6693 50.5234 24.9498L51.3686 25.4844ZM51.8959 23.6914L52.8924 23.7753C52.9585 22.9906 52.9897 21.879 52.9897 20.457H51.9897H50.9897C50.9897 21.8632 50.9584 22.9079 50.8995 23.6075L51.8959 23.6914ZM51.9897 20.457H52.9897C52.9897 19.3736 52.976 18.5161 52.9476 17.8921L51.9487 17.9375L50.9497 17.9829C50.976 18.562 50.9897 19.3843 50.9897 20.457H51.9897ZM51.9487 17.9375L52.9479 17.8986C52.9223 17.2417 52.8428 16.6265 52.7029 16.058L51.7319 16.2969L50.7608 16.5358C50.8631 16.9516 50.9281 17.4301 50.9494 17.9764L51.9487 17.9375ZM51.7319 16.2969L52.7034 16.0597C52.5516 15.4382 52.2801 14.8676 51.8312 14.4313L51.1342 15.1484L50.4373 15.8656C50.543 15.9684 50.6699 16.1633 50.7604 16.534L51.7319 16.2969ZM51.1342 15.1484L51.8312 14.4313C51.3244 13.9388 50.6718 13.7441 49.9975 13.7441V14.7441V15.7441C50.2842 15.7441 50.3894 15.819 50.4373 15.8656L51.1342 15.1484ZM49.9975 14.7441V13.7441C49.3232 13.7441 48.6706 13.9388 48.1638 14.4313L48.8608 15.1484L49.5577 15.8656C49.6056 15.819 49.7108 15.7441 49.9975 15.7441V14.7441ZM48.8608 15.1484L48.1588 14.4363C47.7193 14.8695 47.4504 15.4315 47.2984 16.0444L48.269 16.2852L49.2396 16.5259C49.3298 16.1622 49.4554 15.9664 49.5628 15.8606L48.8608 15.1484ZM48.269 16.2852L47.2966 16.0518C47.1624 16.611 47.0814 17.2222 47.0476 17.8804L48.0463 17.9316L49.045 17.9829C49.0738 17.4223 49.1412 16.9359 49.2414 16.5185L48.269 16.2852ZM48.0463 17.9316L47.0473 17.8865C47.019 18.5143 47.0053 19.3735 47.0053 20.457H48.0053H49.0053C49.0053 19.3843 49.019 18.5599 49.0453 17.9768L48.0463 17.9316ZM60.8697 29H59.8697V30H60.8697V29ZM60.8697 11.9141V10.9141H59.8697V11.9141H60.8697ZM70.2623 12.4414L69.8866 13.3682L69.8902 13.3696L70.2623 12.4414ZM72.3013 14.0586L71.472 14.6174L71.4734 14.6194L72.3013 14.0586ZM72.2545 19.1562L73.0566 19.7534L73.0582 19.7513L72.2545 19.1562ZM70.1861 20.6973L69.8317 19.7622L68.9254 20.1057L69.2404 21.0223L70.1861 20.6973ZM73.0396 29V30H74.4407L73.9853 28.675L73.0396 29ZM68.7681 29L67.8075 29.2778L68.0164 30H68.7681V29ZM66.6295 21.6055L67.5901 21.3276L67.3812 20.6055H66.6295V21.6055ZM65.1939 21.6055V20.6055H64.1939V21.6055H65.1939ZM65.1939 29V30H66.1939V29H65.1939ZM65.1939 15.0781V14.0781H64.1939V15.0781H65.1939ZM65.1939 18.8691H64.1939V19.8691H65.1939V18.8691ZM67.9888 15.4355L67.5474 16.3329L67.5503 16.3342L67.9888 15.4355ZM60.8697 29H61.8697V11.9141H60.8697H59.8697V29H60.8697ZM60.8697 11.9141V12.9141H67.3033V11.9141V10.9141H60.8697V11.9141ZM67.3033 11.9141V12.9141C68.3029 12.9141 69.1583 13.0729 69.8866 13.3681L70.2623 12.4414L70.638 11.5147C69.6319 11.1068 68.5146 10.9141 67.3033 10.9141V11.9141ZM70.2623 12.4414L69.8902 13.3696C70.5833 13.6475 71.0987 14.0634 71.472 14.6174L72.3013 14.0586L73.1306 13.4998C72.5195 12.5929 71.6756 11.9307 70.6344 11.5132L70.2623 12.4414ZM72.3013 14.0586L71.4734 14.6194C71.8305 15.1466 72.0396 15.8402 72.0396 16.7598H73.0396H74.0396C74.0396 15.5309 73.7565 14.4237 73.1292 13.4977L72.3013 14.0586ZM73.0396 16.7598H72.0396C72.0396 17.439 71.845 18.0287 71.4507 18.5612L72.2545 19.1562L73.0582 19.7513C73.7108 18.8698 74.0396 17.8618 74.0396 16.7598H73.0396ZM72.2545 19.1562L71.4523 18.5591C71.048 19.1023 70.5169 19.5025 69.8317 19.7622L70.1861 20.6973L70.5405 21.6324C71.5662 21.2436 72.4141 20.6165 73.0566 19.7534L72.2545 19.1562ZM70.1861 20.6973L69.2404 21.0223L72.0939 29.325L73.0396 29L73.9853 28.675L71.1318 20.3722L70.1861 20.6973ZM73.0396 29V28H68.7681V29V30H73.0396V29ZM68.7681 29L69.7288 28.7222L67.5901 21.3276L66.6295 21.6055L65.6688 21.8833L67.8075 29.2778L68.7681 29ZM66.6295 21.6055V20.6055H65.1939V21.6055V22.6055H66.6295V21.6055ZM65.1939 21.6055H64.1939V29H65.1939H66.1939V21.6055H65.1939ZM65.1939 29V28H60.8697V29V30H65.1939V29ZM65.1939 15.0781H64.1939V18.8691H65.1939H66.1939V15.0781H65.1939ZM65.1939 18.8691V19.8691H66.0318V18.8691V17.8691H65.1939V18.8691ZM66.0318 18.8691V19.8691C67.0133 19.8691 67.9272 19.7042 68.6196 19.223C69.378 18.6959 69.7213 17.8969 69.7213 17H68.7213H67.7213C67.7213 17.3492 67.6163 17.4847 67.4782 17.5807C67.2741 17.7226 66.8433 17.8691 66.0318 17.8691V18.8691ZM68.7213 17H69.7213C69.7213 16.0204 69.4127 15.0177 68.4274 14.5368L67.9888 15.4355L67.5503 16.3342C67.5762 16.3469 67.6011 16.3623 67.6325 16.4294C67.6728 16.5156 67.7213 16.6897 67.7213 17H68.7213ZM67.9888 15.4355L68.4302 14.5382C67.7463 14.2018 66.8769 14.0781 65.9146 14.0781V15.0781V16.0781C66.7491 16.0781 67.2627 16.1928 67.5474 16.3328L67.9888 15.4355ZM65.9146 15.0781V14.0781H65.1939V15.0781V16.0781H65.9146V15.0781ZM77.0856 29H76.0856V30H77.0856V29ZM77.0856 11.9141V10.9141H76.0856V11.9141H77.0856ZM87.8376 11.9141H88.8376V10.9141H87.8376V11.9141ZM87.8376 15.2246V16.2246H88.8376V15.2246H87.8376ZM81.4098 15.2246V14.2246H80.4098V15.2246H81.4098ZM81.4098 18.6816H80.4098V19.6816H81.4098V18.6816ZM85.7282 18.6816H86.7282V17.6816H85.7282V18.6816ZM85.7282 21.9922V22.9922H86.7282V21.9922H85.7282ZM81.4098 21.9922V20.9922H80.4098V21.9922H81.4098ZM81.4098 25.543H80.4098V26.543H81.4098V25.543ZM87.8376 25.543H88.8376V24.543H87.8376V25.543ZM87.8376 29V30H88.8376V29H87.8376ZM77.0856 29H78.0856V11.9141H77.0856H76.0856V29H77.0856ZM77.0856 11.9141V12.9141H87.8376V11.9141V10.9141H77.0856V11.9141ZM87.8376 11.9141H86.8376V15.2246H87.8376H88.8376V11.9141H87.8376ZM87.8376 15.2246V14.2246H81.4098V15.2246V16.2246H87.8376V15.2246ZM81.4098 15.2246H80.4098V18.6816H81.4098H82.4098V15.2246H81.4098ZM81.4098 18.6816V19.6816H85.7282V18.6816V17.6816H81.4098V18.6816ZM85.7282 18.6816H84.7282V21.9922H85.7282H86.7282V18.6816H85.7282ZM85.7282 21.9922V20.9922H81.4098V21.9922V22.9922H85.7282V21.9922ZM81.4098 21.9922H80.4098V25.543H81.4098H82.4098V21.9922H81.4098ZM81.4098 25.543V26.543H87.8376V25.543V24.543H81.4098V25.543ZM87.8376 25.543H86.8376V29H87.8376H88.8376V25.543H87.8376ZM87.8376 29V28H77.0856V29V30H87.8376V29Z" fill="black" mask="url(#path-2-outside-1_667_94)"/>
<mask id="path-4-inside-2_667_94" fill="white">
<path fill-rule="evenodd" clip-rule="evenodd" d="M102.55 13.7C102.325 13.7 102.108 13.7896 101.949 13.949C101.79 14.1084 101.7 14.3246 101.7 14.55V26.45C101.7 26.6754 101.79 26.8916 101.949 27.051C102.108 27.2104 102.325 27.3 102.55 27.3H114.45C114.675 27.3 114.892 27.2104 115.051 27.051C115.21 26.8916 115.3 26.6754 115.3 26.45V21.9765C115.3 21.751 115.39 21.5348 115.549 21.3754C115.708 21.216 115.925 21.1265 116.15 21.1265C116.375 21.1265 116.592 21.216 116.751 21.3754C116.91 21.5348 117 21.751 117 21.9765V26.45C117 27.1263 116.731 27.7749 116.253 28.2531C115.775 28.7313 115.126 29 114.45 29H102.55C101.874 29 101.225 28.7313 100.747 28.2531C100.269 27.7749 100 27.1263 100 26.45V14.55C100 13.8737 100.269 13.2251 100.747 12.7469C101.225 12.2687 101.874 12 102.55 12H106.814C107.04 12 107.256 12.0896 107.415 12.249C107.575 12.4084 107.664 12.6246 107.664 12.85C107.664 13.0754 107.575 13.2916 107.415 13.451C107.256 13.6104 107.04 13.7 106.814 13.7H102.55Z"/>
</mask>
<path d="M101.7 14.55H99.7H101.7ZM116.15 21.1265V19.1265V21.1265ZM117 26.45H119H117ZM114.45 29V31V29ZM102.55 29V31V29ZM100 26.45H98H100ZM100 14.55H98H100ZM102.55 12L102.55 10L102.55 12ZM106.814 12V10V12ZM106.814 13.7V15.7V13.7ZM102.55 13.7V11.7C101.794 11.7 101.069 12.0003 100.535 12.5347L101.949 13.949L103.363 15.3632C103.148 15.5788 102.855 15.7 102.55 15.7V13.7ZM101.949 13.949L100.535 12.5347C100 13.0692 99.7 13.7941 99.7 14.55L101.7 14.55H103.7C103.7 14.855 103.579 15.1475 103.363 15.3632L101.949 13.949ZM101.7 14.55H99.7V26.45H101.7H103.7V14.55H101.7ZM101.7 26.45H99.7C99.7 27.2059 100 27.9308 100.535 28.4653L101.949 27.051L103.363 25.6368C103.579 25.8525 103.7 26.145 103.7 26.45H101.7ZM101.949 27.051L100.535 28.4653C101.069 28.9997 101.794 29.3 102.55 29.3V27.3V25.3C102.855 25.3 103.148 25.4212 103.363 25.6368L101.949 27.051ZM102.55 27.3V29.3H114.45V27.3V25.3H102.55V27.3ZM114.45 27.3V29.3C115.206 29.3 115.931 28.9997 116.465 28.4653L115.051 27.051L113.637 25.6368C113.852 25.4212 114.145 25.3 114.45 25.3V27.3ZM115.051 27.051L116.465 28.4653C117 27.9308 117.3 27.2059 117.3 26.45H115.3H113.3C113.3 26.145 113.421 25.8525 113.637 25.6368L115.051 27.051ZM115.3 26.45H117.3V21.9765H115.3H113.3V26.45H115.3ZM115.3 21.9765H117.3C117.3 22.2814 117.179 22.574 116.963 22.7896L115.549 21.3754L114.135 19.9612C113.6 20.4957 113.3 21.2206 113.3 21.9765H115.3ZM115.549 21.3754L116.963 22.7896C116.748 23.0053 116.455 23.1265 116.15 23.1265V21.1265V19.1265C115.394 19.1265 114.669 19.4267 114.135 19.9612L115.549 21.3754ZM116.15 21.1265V23.1265C115.845 23.1265 115.552 23.0053 115.337 22.7896L116.751 21.3754L118.165 19.9612C117.631 19.4267 116.906 19.1265 116.15 19.1265V21.1265ZM116.751 21.3754L115.337 22.7896C115.121 22.574 115 22.2814 115 21.9765H117H119C119 21.2206 118.7 20.4957 118.165 19.9612L116.751 21.3754ZM117 21.9765H115V26.45H117H119V21.9765H117ZM117 26.45H115C115 26.5959 114.942 26.7358 114.839 26.8389L116.253 28.2531L117.667 29.6673C118.521 28.814 119 27.6567 119 26.45H117ZM116.253 28.2531L114.839 26.8389C114.736 26.9421 114.596 27 114.45 27V29V31C115.657 31 116.814 30.5206 117.667 29.6673L116.253 28.2531ZM114.45 29V27H102.55V29V31H114.45V29ZM102.55 29V27C102.404 27 102.264 26.9421 102.161 26.8389L100.747 28.2531L99.3327 29.6673C100.186 30.5206 101.343 31 102.55 31L102.55 29ZM100.747 28.2531L102.161 26.8389C102.058 26.7358 102 26.5959 102 26.45H100H98C98 27.6567 98.4794 28.814 99.3327 29.6673L100.747 28.2531ZM100 26.45H102V14.55H100H98V26.45H100ZM100 14.55H102C102 14.4041 102.058 14.2642 102.161 14.1611L100.747 12.7469L99.3327 11.3327C98.4794 12.186 98 13.3433 98 14.55L100 14.55ZM100.747 12.7469L102.161 14.1611C102.264 14.0579 102.404 14 102.55 14V12L102.55 10C101.343 10 100.186 10.4794 99.3327 11.3327L100.747 12.7469ZM102.55 12V14H106.814V12V10H102.55V12ZM106.814 12V14C106.509 14 106.217 13.8788 106.001 13.6632L107.415 12.249L108.83 10.8347C108.295 10.3003 107.57 10 106.814 10V12ZM107.415 12.249L106.001 13.6632C105.786 13.4475 105.664 13.155 105.664 12.85H107.664H109.664C109.664 12.0941 109.364 11.3692 108.83 10.8347L107.415 12.249ZM107.664 12.85H105.664C105.664 12.545 105.786 12.2525 106.001 12.0368L107.415 13.451L108.83 14.8653C109.364 14.3308 109.664 13.6059 109.664 12.85H107.664ZM107.415 13.451L106.001 12.0368C106.217 11.8212 106.509 11.7 106.814 11.7V13.7V15.7C107.57 15.7 108.295 15.3997 108.83 14.8653L107.415 13.451ZM106.814 13.7V11.7H102.55V13.7V15.7H106.814V13.7Z" fill="black" mask="url(#path-4-inside-2_667_94)"/>
<mask id="path-6-inside-3_667_94" fill="white">
<path fill-rule="evenodd" clip-rule="evenodd" d="M116.5 12.4868C116.653 12.6402 116.739 12.8481 116.739 13.0648C116.739 13.2815 116.653 13.4893 116.5 13.6428L109.044 21.1109C108.968 21.1867 108.878 21.2468 108.779 21.2879C108.68 21.3289 108.574 21.35 108.466 21.35C108.359 21.35 108.253 21.3289 108.154 21.2879C108.055 21.2468 107.965 21.1867 107.889 21.1109C107.736 20.9574 107.65 20.7496 107.65 20.5329C107.65 20.3162 107.736 20.1083 107.889 19.9549L115.346 12.4868C115.499 12.3339 115.707 12.248 115.923 12.248C116.139 12.248 116.347 12.3339 116.5 12.4868Z"/>
</mask>
<path d="M116.5 12.4868L117.916 11.0745L117.913 11.0719L116.5 12.4868ZM116.5 13.6428L117.915 15.0559L117.916 15.055L116.5 13.6428ZM109.044 21.1109L110.458 22.5247L110.459 22.524L109.044 21.1109ZM107.889 21.1109L106.473 22.5231L106.475 22.5247L107.889 21.1109ZM107.889 19.9549L106.474 18.5417L106.473 18.5426L107.889 19.9549ZM115.346 12.4868L113.933 11.0719L113.931 11.0736L115.346 12.4868ZM115.923 12.248V10.248V12.248ZM116.5 12.4868L115.084 13.899C114.863 13.6776 114.739 13.3776 114.739 13.0648H116.739H118.739C118.739 12.3186 118.443 11.6029 117.916 11.0745L116.5 12.4868ZM116.739 13.0648H114.739C114.739 12.752 114.863 12.452 115.084 12.2305L116.5 13.6428L117.916 15.055C118.443 14.5267 118.739 13.811 118.739 13.0648H116.739ZM116.5 13.6428L115.084 12.2297L107.628 19.6978L109.044 21.1109L110.459 22.524L117.915 15.0559L116.5 13.6428ZM109.044 21.1109L107.629 19.697C107.739 19.587 107.87 19.4997 108.013 19.4402L108.779 21.2879L109.544 23.1355C109.886 22.9939 110.197 22.7864 110.458 22.5247L109.044 21.1109ZM108.779 21.2879L108.013 19.4402C108.157 19.3807 108.311 19.35 108.466 19.35V21.35V23.35C108.836 23.35 109.203 23.2771 109.544 23.1355L108.779 21.2879ZM108.466 21.35V19.35C108.622 19.35 108.776 19.3807 108.92 19.4402L108.154 21.2879L107.389 23.1355C107.73 23.2771 108.097 23.35 108.466 23.35V21.35ZM108.154 21.2879L108.92 19.4402C109.063 19.4997 109.194 19.587 109.304 19.697L107.889 21.1109L106.475 22.5247C106.736 22.7864 107.047 22.9939 107.389 23.1355L108.154 21.2879ZM107.889 21.1109L109.306 19.6986C109.526 19.9201 109.65 20.2201 109.65 20.5329H107.65H105.65C105.65 21.279 105.946 21.9948 106.473 22.5231L107.889 21.1109ZM107.65 20.5329H109.65C109.65 20.8456 109.526 21.1457 109.306 21.3671L107.889 19.9549L106.473 18.5426C105.946 19.071 105.65 19.7867 105.65 20.5329H107.65ZM107.889 19.9549L109.305 21.368L116.762 13.8999L115.346 12.4868L113.931 11.0736L106.474 18.5417L107.889 19.9549ZM115.346 12.4868L116.76 13.9017C116.538 14.1235 116.237 14.248 115.923 14.248V12.248V10.248C115.177 10.248 114.461 10.5444 113.933 11.0719L115.346 12.4868ZM115.923 12.248V14.248C115.609 14.248 115.308 14.1235 115.086 13.9017L116.5 12.4868L117.913 11.0719C117.385 10.5444 116.67 10.248 115.923 10.248V12.248Z" fill="black" mask="url(#path-6-inside-3_667_94)"/>
<mask id="path-8-inside-4_667_94" fill="white">
<path fill-rule="evenodd" clip-rule="evenodd" d="M116.185 12C116.635 12 117.001 12.3655 117.001 12.8177V17.1C117.001 17.5514 116.601 17.95 116.151 17.95C115.7 17.95 115.301 17.5514 115.301 17.1V13.7H111.901C111.45 13.7 111.051 13.3014 111.051 12.85C111.051 12.3986 111.416 12 111.867 12H116.185Z"/>
</mask>
<path d="M115.301 13.7H117.301V11.7H115.301V13.7ZM116.185 12V14C115.528 14 115.001 13.4674 115.001 12.8177H117.001H119.001C119.001 11.2636 117.743 10 116.185 10V12ZM117.001 12.8177H115.001V17.1H117.001H119.001V12.8177H117.001ZM117.001 17.1H115.001C115.001 16.7314 115.159 16.4511 115.331 16.2796C115.502 16.1082 115.782 15.95 116.151 15.95V17.95V19.95C117.705 19.95 119.001 18.6572 119.001 17.1H117.001ZM116.151 17.95V15.95C116.519 15.95 116.799 16.1082 116.971 16.2796C117.142 16.4511 117.301 16.7314 117.301 17.1H115.301H113.301C113.301 18.6572 114.597 19.95 116.151 19.95V17.95ZM115.301 17.1H117.301V13.7H115.301H113.301V17.1H115.301ZM115.301 13.7V11.7H111.901V13.7V15.7H115.301V13.7ZM111.901 13.7V11.7C112.269 11.7 112.549 11.8582 112.721 12.0296C112.892 12.2011 113.051 12.4814 113.051 12.85H111.051H109.051C109.051 14.4072 110.347 15.7 111.901 15.7V13.7ZM111.051 12.85H113.051C113.051 13.1636 112.927 13.4358 112.743 13.6304C112.555 13.8291 112.249 14 111.867 14V12V10C110.209 10 109.051 11.3997 109.051 12.85H111.051ZM111.867 12V14H116.185V12V10H111.867V12Z" fill="black" mask="url(#path-8-inside-4_667_94)"/>
</svg>
