<svg width="269" height="99" viewBox="0 0 269 99" fill="none" xmlns="http://www.w3.org/2000/svg">
<rect x="2" y="2" width="265" height="95" rx="47.5" fill="#00B0A9" stroke="black" stroke-width="4"/>
<mask id="path-2-outside-1_424_250" maskUnits="userSpaceOnUse" x="115" y="23" width="40" height="52" fill="black">
<rect fill="white" x="115" y="23" width="40" height="52"/>
<path d="M118.433 72V26.4375H137.636C140.334 26.4375 142.698 26.9062 144.73 27.8438C146.761 28.7708 148.313 30.0625 149.386 31.7188C150.469 33.3646 151.011 35.2292 151.011 37.3125C151.011 39.1146 150.631 40.776 149.87 42.2969C149.12 43.8177 148.094 45.0729 146.792 46.0625C145.49 47.0417 144.037 47.7083 142.433 48.0625V48.1875C145.453 48.9271 147.776 50.25 149.401 52.1562C151.037 54.0521 151.855 56.4844 151.855 59.4531C151.855 61.3802 151.506 63.1146 150.808 64.6562C150.11 66.1875 149.094 67.5052 147.761 68.6094C146.438 69.7135 144.855 70.5573 143.011 71.1406C141.177 71.7135 139.151 72 136.933 72H118.433ZM129.964 52.1562V63.5469H134.183C135.745 63.5469 137.094 63.1146 138.23 62.25C139.375 61.3854 139.948 59.901 139.948 57.7969C139.948 56.0781 139.443 54.7083 138.433 53.6875C137.422 52.6667 136.006 52.1562 134.183 52.1562H129.964ZM129.964 34.5V44.4844H133.73C135.698 44.4844 137.151 44.0312 138.089 43.125C139.026 42.2083 139.495 41.0156 139.495 39.5469C139.495 36.1823 137.662 34.5 133.995 34.5H129.964Z"/>
</mask>
<path d="M118.433 72V26.4375H137.636C140.334 26.4375 142.698 26.9062 144.73 27.8438C146.761 28.7708 148.313 30.0625 149.386 31.7188C150.469 33.3646 151.011 35.2292 151.011 37.3125C151.011 39.1146 150.631 40.776 149.87 42.2969C149.12 43.8177 148.094 45.0729 146.792 46.0625C145.49 47.0417 144.037 47.7083 142.433 48.0625V48.1875C145.453 48.9271 147.776 50.25 149.401 52.1562C151.037 54.0521 151.855 56.4844 151.855 59.4531C151.855 61.3802 151.506 63.1146 150.808 64.6562C150.11 66.1875 149.094 67.5052 147.761 68.6094C146.438 69.7135 144.855 70.5573 143.011 71.1406C141.177 71.7135 139.151 72 136.933 72H118.433ZM129.964 52.1562V63.5469H134.183C135.745 63.5469 137.094 63.1146 138.23 62.25C139.375 61.3854 139.948 59.901 139.948 57.7969C139.948 56.0781 139.443 54.7083 138.433 53.6875C137.422 52.6667 136.006 52.1562 134.183 52.1562H129.964ZM129.964 34.5V44.4844H133.73C135.698 44.4844 137.151 44.0312 138.089 43.125C139.026 42.2083 139.495 41.0156 139.495 39.5469C139.495 36.1823 137.662 34.5 133.995 34.5H129.964Z" fill="#FBCE20"/>
<path d="M118.433 72H115.433V75H118.433V72ZM118.433 26.4375V23.4375H115.433V26.4375H118.433ZM144.73 27.8438L143.472 30.5677L143.484 30.5729L144.73 27.8438ZM149.386 31.7188L146.868 33.3498L146.874 33.359L146.88 33.3682L149.386 31.7188ZM149.87 42.2969L147.187 40.9552L147.183 40.9626L147.18 40.97L149.87 42.2969ZM146.792 46.0625L148.595 48.4602L148.601 48.4556L148.607 48.451L146.792 46.0625ZM142.433 48.0625L141.786 45.133L139.433 45.6526V48.0625H142.433ZM142.433 48.1875H139.433V50.5416L141.719 51.1014L142.433 48.1875ZM149.401 52.1562L147.118 54.1025L147.124 54.1091L147.13 54.1158L149.401 52.1562ZM150.808 64.6562L153.537 65.9005L153.541 65.8935L150.808 64.6562ZM147.761 68.6094L145.847 66.2988L145.838 66.3062L147.761 68.6094ZM143.011 71.1406L143.906 74.0041L143.916 74.0009L143.011 71.1406ZM129.964 52.1562V49.1562H126.964V52.1562H129.964ZM129.964 63.5469H126.964V66.5469H129.964V63.5469ZM138.23 62.25L136.423 59.8552L136.412 59.8632L138.23 62.25ZM129.964 34.5V31.5H126.964V34.5H129.964ZM129.964 44.4844H126.964V47.4844H129.964V44.4844ZM138.089 43.125L140.174 45.282L140.18 45.276L140.186 45.27L138.089 43.125ZM118.433 72H121.433V26.4375H118.433H115.433V72H118.433ZM118.433 26.4375V29.4375H137.636V26.4375V23.4375H118.433V26.4375ZM137.636 26.4375V29.4375C139.987 29.4375 141.908 29.8456 143.472 30.5676L144.73 27.8438L145.987 25.1199C143.489 23.9669 140.68 23.4375 137.636 23.4375V26.4375ZM144.73 27.8438L143.484 30.5729C145.065 31.2948 146.145 32.2343 146.868 33.3498L149.386 31.7188L151.904 30.0877C150.48 27.8907 148.456 26.2469 145.975 25.1146L144.73 27.8438ZM149.386 31.7188L146.88 33.3682C147.622 34.4956 148.011 35.7801 148.011 37.3125H151.011H154.011C154.011 34.6782 153.316 32.2336 151.892 30.0693L149.386 31.7188ZM151.011 37.3125H148.011C148.011 38.6774 147.727 39.8758 147.187 40.9552L149.87 42.2969L152.553 43.6385C153.535 41.6763 154.011 39.5517 154.011 37.3125H151.011ZM149.87 42.2969L147.18 40.97C146.627 42.0898 145.895 42.9762 144.977 43.674L146.792 46.0625L148.607 48.451C150.293 47.1696 151.613 45.5456 152.561 43.6238L149.87 42.2969ZM146.792 46.0625L144.989 43.6648C144.033 44.3838 142.975 44.8706 141.786 45.133L142.433 48.0625L143.079 50.992C145.099 50.5461 146.947 49.6995 148.595 48.4602L146.792 46.0625ZM142.433 48.0625H139.433V48.1875H142.433H145.433V48.0625H142.433ZM142.433 48.1875L141.719 51.1014C144.278 51.7279 145.992 52.7809 147.118 54.1025L149.401 52.1562L151.684 50.21C149.561 47.7191 146.629 46.1263 143.146 45.2736L142.433 48.1875ZM149.401 52.1562L147.13 54.1158C148.211 55.3692 148.855 57.0633 148.855 59.4531H151.855H154.855C154.855 55.9054 153.863 52.7349 151.673 50.1967L149.401 52.1562ZM151.855 59.4531H148.855C148.855 61.0126 148.574 62.3166 148.075 63.419L150.808 64.6562L153.541 65.8935C154.437 63.9126 154.855 61.7478 154.855 59.4531H151.855ZM150.808 64.6562L148.078 63.412C147.573 64.5186 146.842 65.4753 145.847 66.2988L147.761 68.6094L149.674 70.9199C151.346 69.5352 152.646 67.8564 153.537 65.9005L150.808 64.6562ZM147.761 68.6094L145.838 66.3062C144.85 67.1315 143.623 67.8004 142.106 68.2804L143.011 71.1406L143.916 74.0009C146.086 73.3142 148.026 72.2956 149.683 70.9126L147.761 68.6094ZM143.011 71.1406L142.116 68.2772C140.613 68.7468 138.894 69 136.933 69V72V75C139.409 75 141.742 74.6803 143.906 74.0041L143.011 71.1406ZM136.933 72V69H118.433V72V75H136.933V72ZM129.964 52.1562H126.964V63.5469H129.964H132.964V52.1562H129.964ZM129.964 63.5469V66.5469H134.183V63.5469V60.5469H129.964V63.5469ZM134.183 63.5469V66.5469C136.336 66.5469 138.339 65.9374 140.047 64.6368L138.23 62.25L136.412 59.8632C135.849 60.2918 135.155 60.5469 134.183 60.5469V63.5469ZM138.23 62.25L140.036 64.6448C142.236 62.9848 142.948 60.384 142.948 57.7969H139.948H136.948C136.948 59.4181 136.514 59.786 136.423 59.8552L138.23 62.25ZM139.948 57.7969H142.948C142.948 55.454 142.238 53.2676 140.565 51.5771L138.433 53.6875L136.3 55.7979C136.648 56.149 136.948 56.7022 136.948 57.7969H139.948ZM138.433 53.6875L140.565 51.5771C138.849 49.8437 136.58 49.1562 134.183 49.1562V52.1562V55.1562C135.432 55.1562 135.995 55.4896 136.3 55.7979L138.433 53.6875ZM134.183 52.1562V49.1562H129.964V52.1562V55.1562H134.183V52.1562ZM129.964 34.5H126.964V44.4844H129.964H132.964V34.5H129.964ZM129.964 44.4844V47.4844H133.73V44.4844V41.4844H129.964V44.4844ZM133.73 44.4844V47.4844C136.087 47.4844 138.449 46.9496 140.174 45.282L138.089 43.125L136.004 40.968C135.854 41.1129 135.309 41.4844 133.73 41.4844V44.4844ZM138.089 43.125L140.186 45.27C141.773 43.7186 142.495 41.7165 142.495 39.5469H139.495H136.495C136.495 40.3147 136.28 40.698 135.992 40.98L138.089 43.125ZM139.495 39.5469H142.495C142.495 37.3326 141.88 35.1402 140.148 33.5513C138.466 32.0072 136.23 31.5 133.995 31.5V34.5V37.5C135.427 37.5 135.941 37.8339 136.092 37.9721C136.194 38.0656 136.495 38.3965 136.495 39.5469H139.495ZM133.995 34.5V31.5H129.964V34.5V37.5H133.995V34.5Z" fill="black" mask="url(#path-2-outside-1_424_250)"/>
</svg>
