<svg width="269" height="99" viewBox="0 0 269 99" fill="none" xmlns="http://www.w3.org/2000/svg">
<rect x="2" y="2" width="265" height="95" rx="47.5" fill="#00B0A9" stroke="black" stroke-width="4"/>
<mask id="path-2-outside-1_424_253" maskUnits="userSpaceOnUse" x="112" y="23" width="44" height="52" fill="black">
<rect fill="white" x="112" y="23" width="44" height="52"/>
<path d="M116.105 72L126.792 26.4375H141.901L151.62 72H139.98L138.183 62.7812H127.62L125.636 72H116.105ZM133.136 36.1562L129.23 54.7188H136.589L133.261 36.1562H133.136Z"/>
</mask>
<path d="M116.105 72L126.792 26.4375H141.901L151.62 72H139.98L138.183 62.7812H127.62L125.636 72H116.105ZM133.136 36.1562L129.23 54.7188H136.589L133.261 36.1562H133.136Z" fill="#FBCE20"/>
<path d="M116.105 72L113.184 71.3149L112.319 75H116.105V72ZM126.792 26.4375V23.4375H124.414L123.871 25.7524L126.792 26.4375ZM141.901 26.4375L144.835 25.8117L144.329 23.4375H141.901V26.4375ZM151.62 72V75H155.328L154.554 71.3742L151.62 72ZM139.98 72L137.035 72.5739L137.508 75H139.98V72ZM138.183 62.7812L141.127 62.2073L140.654 59.7812H138.183V62.7812ZM127.62 62.7812V59.7812H125.197L124.687 62.1499L127.62 62.7812ZM125.636 72V75H128.059L128.569 72.6313L125.636 72ZM133.136 36.1562V33.1562H130.701L130.2 35.5385L133.136 36.1562ZM129.23 54.7188L126.294 54.101L125.533 57.7188H129.23V54.7188ZM136.589 54.7188V57.7188H140.175L139.542 54.1893L136.589 54.7188ZM133.261 36.1562L136.214 35.6268L135.771 33.1562H133.261V36.1562ZM116.105 72L119.025 72.6851L129.713 27.1226L126.792 26.4375L123.871 25.7524L113.184 71.3149L116.105 72ZM126.792 26.4375V29.4375H141.901V26.4375V23.4375H126.792V26.4375ZM141.901 26.4375L138.967 27.0633L148.686 72.6258L151.62 72L154.554 71.3742L144.835 25.8117L141.901 26.4375ZM151.62 72V69H139.98V72V75H151.62V72ZM139.98 72L142.924 71.4261L141.127 62.2073L138.183 62.7812L135.238 63.3552L137.035 72.5739L139.98 72ZM138.183 62.7812V59.7812H127.62V62.7812V65.7812H138.183V62.7812ZM127.62 62.7812L124.687 62.1499L122.703 71.3687L125.636 72L128.569 72.6313L130.553 63.4126L127.62 62.7812ZM125.636 72V69H116.105V72V75H125.636V72ZM133.136 36.1562L130.2 35.5385L126.294 54.101L129.23 54.7188L132.165 55.3365L136.071 36.774L133.136 36.1562ZM129.23 54.7188V57.7188H136.589V54.7188V51.7188H129.23V54.7188ZM136.589 54.7188L139.542 54.1893L136.214 35.6268L133.261 36.1562L130.308 36.6857L133.636 55.2482L136.589 54.7188ZM133.261 36.1562V33.1562H133.136V36.1562V39.1562H133.261V36.1562Z" fill="black" mask="url(#path-2-outside-1_424_253)"/>
</svg>
