<svg width="374" height="746" viewBox="0 0 374 746" fill="none" xmlns="http://www.w3.org/2000/svg">
<path fill-rule="evenodd" clip-rule="evenodd" d="M186.932 745.399C137.351 745.402 89.8024 725.71 54.7461 690.653C19.6898 655.597 -0.00284712 608.048 0.000325757 558.468L0.0113194 408.933L373.875 408.879L373.943 558.493C373.939 608.074 354.24 655.625 319.178 690.687C284.117 725.748 236.565 745.448 186.985 745.452L186.932 745.399ZM373.907 334.085L373.892 184.576C373.276 135.409 353.314 88.4673 318.33 53.9192C283.346 19.3712 236.157 -0.000996374 186.986 -0.00085562C137.815 -0.000714866 90.6212 19.3717 55.6274 53.92C20.6336 88.4683 0.658027 135.41 0.0278169 184.577L0.0168232 334.112L373.907 334.085Z" fill="#67A4A3" fill-opacity="0.25"/>
</svg>
