<svg width="171" height="171" viewBox="0 0 171 171" fill="none" xmlns="http://www.w3.org/2000/svg">
<circle cx="85.1757" cy="85.1757" r="83.6757" fill="#00B0A9" stroke="black" stroke-width="3"/>
<path d="M87.7573 32.4727C91.1243 32.4728 94.353 33.8106 96.7339 36.1914C99.1148 38.5724 100.453 41.8018 100.453 45.1689V75.0605H130.345C133.712 75.0607 136.941 76.3985 139.322 78.7793C141.703 81.1602 143.041 84.3897 143.041 87.7568C143.04 91.1239 141.703 94.3525 139.322 96.7334C136.944 99.1108 133.722 100.447 130.36 100.451L101.98 99.9482L100.453 99.9219V130.345C100.453 133.712 99.1147 136.94 96.7339 139.321C94.353 141.702 91.1243 143.04 87.7573 143.04C84.3902 143.04 81.1607 141.702 78.7798 139.321C76.405 136.946 75.0679 133.728 75.061 130.37L75.5649 101.475L75.5913 99.9219L74.0386 99.9482L45.1538 100.451C41.7921 100.447 38.5692 99.1107 36.1919 96.7334C33.8111 94.3526 32.4732 91.1238 32.4731 87.7568C32.4731 84.3897 33.811 81.1602 36.1919 78.7793C38.5728 76.3983 41.8023 75.0605 45.1694 75.0605H75.5923L75.5649 73.5342L75.061 45.1689C75.061 41.8018 76.3988 38.5724 78.7798 36.1914C81.1607 33.8105 84.3902 32.4727 87.7573 32.4727Z" fill="#FFC900" stroke="black" stroke-width="3"/>
</svg>
