<svg width="80" height="131" viewBox="0 0 80 131" fill="none" xmlns="http://www.w3.org/2000/svg">
<path d="M80 30.2308C80 59.3821 47.515 57.4026 47.515 77.5565V77.6654C47.515 79.9904 45.6249 81.875 43.293 81.875H25.5687C23.2369 81.875 21.3468 79.9904 21.3468 77.6654V76.4766C21.3468 45.3461 49.8614 47.3256 49.8614 32.75C49.8614 26.4519 45.1692 22.6731 37.4089 22.6731C31.0956 22.6731 24.6443 25.4256 18.7796 31.0511C17.2766 32.4927 14.9266 32.5837 13.2842 31.3026L1.62762 22.2119C-0.336915 20.6799 -0.564764 17.7767 1.17192 15.9916C10.9036 5.98855 23.5495 0 40.2965 0C66.8255 0.000324091 80 14.2159 80 30.2308ZM51.1242 114.625C51.1242 123.622 43.9054 131 34.7016 131C25.6779 131 18.2787 123.622 18.2787 114.625C18.2787 105.628 25.6779 98.2503 34.7016 98.2503C43.9057 98.2503 51.1242 105.628 51.1242 114.625Z" fill="#3D3D3D" fill-opacity="0.25"/>
</svg>
