<svg width="269" height="99" viewBox="0 0 269 99" fill="none" xmlns="http://www.w3.org/2000/svg">
<rect x="2" y="2" width="265" height="95" rx="47.5" fill="#FBCE20" stroke="black" stroke-width="4"/>
<mask id="path-2-outside-1_424_249" maskUnits="userSpaceOnUse" x="31" y="22" width="205" height="54" fill="black">
<rect fill="white" x="31" y="22" width="205" height="54"/>
<path d="M35.5258 61.375L45.0727 57.5312C46.0206 59.7188 47.057 61.3542 48.182 62.4375C49.3174 63.5208 50.9008 64.0625 52.932 64.0625C54.2549 64.0625 55.3747 63.6927 56.2914 62.9531C57.2081 62.2135 57.6664 61.3021 57.6664 60.2188C57.6664 58.2083 57.057 56.849 55.8383 56.1406C54.6195 55.4323 52.1508 54.3177 48.432 52.7969C44.7133 51.2656 41.9529 49.4844 40.1508 47.4531C38.3487 45.4219 37.4477 42.4271 37.4477 38.4688C37.4477 36.2292 38.1247 34.1094 39.4789 32.1094C40.8331 30.1094 42.6456 28.5156 44.9164 27.3281C47.1977 26.1302 49.6143 25.5312 52.1664 25.5312C54.6352 25.5312 56.9268 25.9688 59.0414 26.8438C61.156 27.7083 62.9424 28.9062 64.4008 30.4375C65.8695 31.9688 66.932 33.6823 67.5883 35.5781L58.4477 39.4219C56.9268 36.0573 54.8331 34.375 52.1664 34.375C51.0727 34.375 50.1352 34.7083 49.3539 35.375C48.5831 36.0312 48.1977 36.974 48.1977 38.2031C48.1977 39.5781 49.4112 40.8333 51.8383 41.9688C54.2758 43.0938 56.781 44.2031 59.3539 45.2969C61.9372 46.3906 64.156 47.8854 66.0102 49.7812C67.8747 51.6667 68.807 54.2292 68.807 57.4688C68.807 60.4792 68.0518 63.1615 66.5414 65.5156C65.0414 67.8698 63.0154 69.6875 60.4633 70.9688C57.9216 72.25 55.156 72.8906 52.1664 72.8906C49.5935 72.8906 47.2081 72.4479 45.0102 71.5625C42.8227 70.6667 40.9112 69.3542 39.2758 67.625C37.6508 65.8854 36.4008 63.8021 35.5258 61.375ZM76.3308 35.2656V26.4375H108.456V35.2656H98.1589V72H86.6277V35.2656H76.3308ZM114.948 72L125.636 26.4375H140.745L150.464 72H138.823L137.026 62.7812H126.464L124.48 72H114.948ZM131.98 36.1562L128.073 54.7188H135.433L132.105 36.1562H131.98ZM160.519 72V26.4375H177.675C180.623 26.4375 183.253 26.9062 185.566 27.8438C187.878 28.7708 189.691 30.2083 191.003 32.1562C192.316 34.0938 192.972 36.4948 192.972 39.3594C192.972 41.7344 192.274 43.8646 190.878 45.75C189.482 47.625 187.644 48.9948 185.363 49.8594L192.972 72H181.581L175.878 52.2812H172.05V72H160.519ZM172.05 34.875V44.9844H174.285C179.066 44.9844 181.456 43.3229 181.456 40C181.456 37.8542 180.805 36.4635 179.503 35.8281C178.212 35.1927 176.368 34.875 173.972 34.875H172.05ZM200.183 35.2656V26.4375H232.308V35.2656H222.011V72H210.48V35.2656H200.183Z"/>
</mask>
<path d="M35.5258 61.375L45.0727 57.5312C46.0206 59.7188 47.057 61.3542 48.182 62.4375C49.3174 63.5208 50.9008 64.0625 52.932 64.0625C54.2549 64.0625 55.3747 63.6927 56.2914 62.9531C57.2081 62.2135 57.6664 61.3021 57.6664 60.2188C57.6664 58.2083 57.057 56.849 55.8383 56.1406C54.6195 55.4323 52.1508 54.3177 48.432 52.7969C44.7133 51.2656 41.9529 49.4844 40.1508 47.4531C38.3487 45.4219 37.4477 42.4271 37.4477 38.4688C37.4477 36.2292 38.1247 34.1094 39.4789 32.1094C40.8331 30.1094 42.6456 28.5156 44.9164 27.3281C47.1977 26.1302 49.6143 25.5312 52.1664 25.5312C54.6352 25.5312 56.9268 25.9688 59.0414 26.8438C61.156 27.7083 62.9424 28.9062 64.4008 30.4375C65.8695 31.9688 66.932 33.6823 67.5883 35.5781L58.4477 39.4219C56.9268 36.0573 54.8331 34.375 52.1664 34.375C51.0727 34.375 50.1352 34.7083 49.3539 35.375C48.5831 36.0312 48.1977 36.974 48.1977 38.2031C48.1977 39.5781 49.4112 40.8333 51.8383 41.9688C54.2758 43.0938 56.781 44.2031 59.3539 45.2969C61.9372 46.3906 64.156 47.8854 66.0102 49.7812C67.8747 51.6667 68.807 54.2292 68.807 57.4688C68.807 60.4792 68.0518 63.1615 66.5414 65.5156C65.0414 67.8698 63.0154 69.6875 60.4633 70.9688C57.9216 72.25 55.156 72.8906 52.1664 72.8906C49.5935 72.8906 47.2081 72.4479 45.0102 71.5625C42.8227 70.6667 40.9112 69.3542 39.2758 67.625C37.6508 65.8854 36.4008 63.8021 35.5258 61.375ZM76.3308 35.2656V26.4375H108.456V35.2656H98.1589V72H86.6277V35.2656H76.3308ZM114.948 72L125.636 26.4375H140.745L150.464 72H138.823L137.026 62.7812H126.464L124.48 72H114.948ZM131.98 36.1562L128.073 54.7188H135.433L132.105 36.1562H131.98ZM160.519 72V26.4375H177.675C180.623 26.4375 183.253 26.9062 185.566 27.8438C187.878 28.7708 189.691 30.2083 191.003 32.1562C192.316 34.0938 192.972 36.4948 192.972 39.3594C192.972 41.7344 192.274 43.8646 190.878 45.75C189.482 47.625 187.644 48.9948 185.363 49.8594L192.972 72H181.581L175.878 52.2812H172.05V72H160.519ZM172.05 34.875V44.9844H174.285C179.066 44.9844 181.456 43.3229 181.456 40C181.456 37.8542 180.805 36.4635 179.503 35.8281C178.212 35.1927 176.368 34.875 173.972 34.875H172.05ZM200.183 35.2656V26.4375H232.308V35.2656H222.011V72H210.48V35.2656H200.183Z" fill="#00B0A9"/>
<path d="M35.5258 61.375L34.4053 58.5921L31.7229 59.6721L32.7036 62.3924L35.5258 61.375ZM45.0727 57.5312L47.8253 56.3384L46.6633 53.6568L43.9522 54.7483L45.0727 57.5312ZM48.182 62.4375L46.1011 64.5985L46.1111 64.608L48.182 62.4375ZM55.8383 56.1406L57.3458 53.5469L55.8383 56.1406ZM48.432 52.7969L47.2898 55.5709L47.2964 55.5736L48.432 52.7969ZM44.9164 27.3281L46.3066 29.9866L46.3111 29.9842L44.9164 27.3281ZM59.0414 26.8438L57.8943 29.6158L57.906 29.6206L59.0414 26.8438ZM64.4008 30.4375L62.2284 32.5065L62.2357 32.5142L64.4008 30.4375ZM67.5883 35.5781L68.7512 38.3436L71.3429 37.2537L70.4232 34.5968L67.5883 35.5781ZM58.4477 39.4219L55.714 40.6575L56.9173 43.3198L59.6106 42.1873L58.4477 39.4219ZM49.3539 35.375L51.2986 37.6593L51.3013 37.6571L49.3539 35.375ZM51.8383 41.9688L50.5671 44.6861L50.5741 44.6894L50.5811 44.6926L51.8383 41.9688ZM59.3539 45.2969L58.1802 48.0578L58.1843 48.0595L59.3539 45.2969ZM66.0102 49.7812L63.8654 51.8789L63.8712 51.8848L63.8771 51.8908L66.0102 49.7812ZM66.5414 65.5156L64.0164 63.8956L64.0113 63.9035L66.5414 65.5156ZM60.4633 70.9688L59.1173 68.2877L59.1129 68.2899L60.4633 70.9688ZM45.0102 71.5625L43.8732 74.3387L43.8812 74.342L43.8892 74.3452L45.0102 71.5625ZM39.2758 67.625L37.0835 69.6729L37.0898 69.6797L37.0962 69.6864L39.2758 67.625ZM35.5258 61.375L36.6462 64.1579L46.1931 60.3142L45.0727 57.5312L43.9522 54.7483L34.4053 58.5921L35.5258 61.375ZM45.0727 57.5312L42.32 58.7241C43.3509 61.1032 44.5806 63.1343 46.1011 64.5985L48.182 62.4375L50.263 60.2765C49.5334 59.5741 48.6902 58.3343 47.8253 56.3384L45.0727 57.5312ZM48.182 62.4375L46.1111 64.608C47.9542 66.3666 50.3648 67.0625 52.932 67.0625V64.0625V61.0625C51.4368 61.0625 50.6806 60.675 50.253 60.267L48.182 62.4375ZM52.932 64.0625V67.0625C54.851 67.0625 56.6594 66.5109 58.1752 65.2879L56.2914 62.9531L54.4076 60.6183C54.0901 60.8745 53.6589 61.0625 52.932 61.0625V64.0625ZM56.2914 62.9531L58.1752 65.2879C59.7274 64.0356 60.6664 62.2958 60.6664 60.2188H57.6664H54.6664C54.6664 60.3221 54.6484 60.3553 54.6424 60.3671C54.6329 60.3861 54.5843 60.4757 54.4076 60.6183L56.2914 62.9531ZM57.6664 60.2188H60.6664C60.6664 57.6444 59.8546 55.005 57.3458 53.5469L55.8383 56.1406L54.3308 58.7344C54.3654 58.7545 54.4085 58.7774 54.4718 58.9186C54.5543 59.1024 54.6664 59.4968 54.6664 60.2188H57.6664ZM55.8383 56.1406L57.3458 53.5469C55.9198 52.7181 53.2613 51.5307 49.5676 50.0201L48.432 52.7969L47.2964 55.5736C51.0402 57.1047 53.3192 58.1465 54.3308 58.7344L55.8383 56.1406ZM48.432 52.7969L49.5743 50.0228C46.0911 48.5886 43.7838 47.0277 42.3949 45.4622L40.1508 47.4531L37.9066 49.4441C40.1219 51.941 43.3355 53.9427 47.2898 55.5709L48.432 52.7969ZM40.1508 47.4531L42.3949 45.4622C41.2614 44.1845 40.4477 42.0232 40.4477 38.4688H37.4477H34.4477C34.4477 42.831 35.436 46.6592 37.9066 49.4441L40.1508 47.4531ZM37.4477 38.4688H40.4477C40.4477 36.8763 40.9174 35.3357 41.963 33.7913L39.4789 32.1094L36.9948 30.4274C35.3321 32.883 34.4477 35.582 34.4477 38.4688H37.4477ZM39.4789 32.1094L41.963 33.7913C43.022 32.2274 44.4479 30.9585 46.3066 29.9866L44.9164 27.3281L43.5262 24.6697C40.8432 26.0727 38.6442 27.9913 36.9948 30.4274L39.4789 32.1094ZM44.9164 27.3281L46.3111 29.9842C48.1665 29.0099 50.1051 28.5312 52.1664 28.5312V25.5312V22.5312C49.1236 22.5312 46.2288 23.2505 43.5217 24.6721L44.9164 27.3281ZM52.1664 25.5312V28.5312C54.2728 28.5312 56.1713 28.9028 57.8944 29.6158L59.0414 26.8438L60.1885 24.0717C57.6823 23.0347 54.9975 22.5312 52.1664 22.5312V25.5312ZM59.0414 26.8438L57.906 29.6206C59.6608 30.3381 61.0848 31.3057 62.2284 32.5065L64.4008 30.4375L66.5732 28.3685C64.8001 26.5068 62.6512 25.0786 60.1768 24.0669L59.0414 26.8438ZM64.4008 30.4375L62.2357 32.5142C63.4224 33.7513 64.2468 35.0962 64.7533 36.5595L67.5883 35.5781L70.4232 34.5968C69.6172 32.2684 68.3167 30.1862 66.5658 28.3608L64.4008 30.4375ZM67.5883 35.5781L66.4254 32.8127L57.2848 36.6564L58.4477 39.4219L59.6106 42.1873L68.7512 38.3436L67.5883 35.5781ZM58.4477 39.4219L61.1814 38.1862C59.3944 34.2328 56.4651 31.375 52.1664 31.375V34.375V37.375C53.2011 37.375 54.4593 37.8817 55.714 40.6575L58.4477 39.4219ZM52.1664 34.375V31.375C50.409 31.375 48.7678 31.9313 47.4065 33.0929L49.3539 35.375L51.3013 37.6571C51.5025 37.4854 51.7363 37.375 52.1664 37.375V34.375ZM49.3539 35.375L47.4092 33.0907C45.8263 34.4383 45.1977 36.3009 45.1977 38.2031H48.1977H51.1977C51.1977 37.8993 51.2453 37.7543 51.2636 37.7095C51.2759 37.6794 51.2808 37.6745 51.2986 37.6593L49.3539 35.375ZM48.1977 38.2031H45.1977C45.1977 39.8636 45.9559 41.2317 46.951 42.261C47.9103 43.2532 49.1806 44.0375 50.5671 44.6861L51.8383 41.9688L53.1095 39.2514C52.0689 38.7646 51.5189 38.3535 51.2646 38.0906C51.0462 37.8646 51.1977 37.9177 51.1977 38.2031H48.1977ZM51.8383 41.9688L50.5811 44.6926C53.0474 45.8309 55.5805 46.9526 58.1802 48.0578L59.3539 45.2969L60.5276 42.536C57.9815 41.4537 55.5042 40.3566 53.0955 39.2449L51.8383 41.9688ZM59.3539 45.2969L58.1843 48.0595C60.4232 49.0074 62.3049 50.2833 63.8654 51.8789L66.0102 49.7812L68.1549 47.6836C66.0071 45.4875 63.4512 43.7738 60.5236 42.5343L59.3539 45.2969ZM66.0102 49.7812L63.8771 51.8908C65.0679 53.0948 65.807 54.833 65.807 57.4688H68.807H71.807C71.807 53.6253 70.6816 50.2385 68.1432 47.6717L66.0102 49.7812ZM68.807 57.4688H65.807C65.807 59.9506 65.1929 62.0619 64.0164 63.8956L66.5414 65.5156L69.0664 67.1356C70.9108 64.261 71.807 61.0078 71.807 57.4688H68.807ZM66.5414 65.5156L64.0113 63.9035C62.8093 65.7901 61.1971 67.2435 59.1173 68.2877L60.4633 70.9688L61.8093 73.6498C64.8336 72.1315 67.2735 69.9494 69.0715 67.1277L66.5414 65.5156ZM60.4633 70.9688L59.1129 68.2899C57.0112 69.3493 54.7112 69.8906 52.1664 69.8906V72.8906V75.8906C55.6007 75.8906 58.832 75.1507 61.8137 73.6476L60.4633 70.9688ZM52.1664 72.8906V69.8906C49.9445 69.8906 47.9432 69.5098 46.1311 68.7798L45.0102 71.5625L43.8892 74.3452C46.4729 75.386 49.2425 75.8906 52.1664 75.8906V72.8906ZM45.0102 71.5625L46.1471 68.7863C44.3567 68.0531 42.8 66.9853 41.4554 65.5636L39.2758 67.625L37.0962 69.6864C39.0224 71.723 41.2886 73.2802 43.8732 74.3387L45.0102 71.5625ZM39.2758 67.625L41.4681 65.5771C40.1433 64.1589 39.0967 62.4344 38.348 60.3576L35.5258 61.375L32.7036 62.3924C33.7049 65.1698 35.1583 67.6119 37.0835 69.6729L39.2758 67.625ZM76.3308 35.2656H73.3308V38.2656H76.3308V35.2656ZM76.3308 26.4375V23.4375H73.3308V26.4375H76.3308ZM108.456 26.4375H111.456V23.4375H108.456V26.4375ZM108.456 35.2656V38.2656H111.456V35.2656H108.456ZM98.1589 35.2656V32.2656H95.1589V35.2656H98.1589ZM98.1589 72V75H101.159V72H98.1589ZM86.6277 72H83.6277V75H86.6277V72ZM86.6277 35.2656H89.6277V32.2656H86.6277V35.2656ZM76.3308 35.2656H79.3308V26.4375H76.3308H73.3308V35.2656H76.3308ZM76.3308 26.4375V29.4375H108.456V26.4375V23.4375H76.3308V26.4375ZM108.456 26.4375H105.456V35.2656H108.456H111.456V26.4375H108.456ZM108.456 35.2656V32.2656H98.1589V35.2656V38.2656H108.456V35.2656ZM98.1589 35.2656H95.1589V72H98.1589H101.159V35.2656H98.1589ZM98.1589 72V69H86.6277V72V75H98.1589V72ZM86.6277 72H89.6277V35.2656H86.6277H83.6277V72H86.6277ZM86.6277 35.2656V32.2656H76.3308V35.2656V38.2656H86.6277V35.2656ZM114.948 72L112.028 71.3149L111.163 75H114.948V72ZM125.636 26.4375V23.4375H123.258L122.715 25.7524L125.636 26.4375ZM140.745 26.4375L143.679 25.8117L143.173 23.4375H140.745V26.4375ZM150.464 72V75H154.171L153.398 71.3742L150.464 72ZM138.823 72L135.879 72.5739L136.352 75H138.823V72ZM137.026 62.7812L139.971 62.2073L139.498 59.7812H137.026V62.7812ZM126.464 62.7812V59.7812H124.041L123.531 62.1499L126.464 62.7812ZM124.48 72V75H126.902L127.412 72.6313L124.48 72ZM131.98 36.1562V33.1562H129.545L129.044 35.5385L131.98 36.1562ZM128.073 54.7188L125.138 54.101L124.376 57.7188H128.073V54.7188ZM135.433 54.7188V57.7188H139.018L138.386 54.1893L135.433 54.7188ZM132.105 36.1562L135.057 35.6268L134.614 33.1562H132.105V36.1562ZM114.948 72L117.869 72.6851L128.557 27.1226L125.636 26.4375L122.715 25.7524L112.028 71.3149L114.948 72ZM125.636 26.4375V29.4375H140.745V26.4375V23.4375H125.636V26.4375ZM140.745 26.4375L137.811 27.0633L147.53 72.6258L150.464 72L153.398 71.3742L143.679 25.8117L140.745 26.4375ZM150.464 72V69H138.823V72V75H150.464V72ZM138.823 72L141.768 71.4261L139.971 62.2073L137.026 62.7812L134.082 63.3552L135.879 72.5739L138.823 72ZM137.026 62.7812V59.7812H126.464V62.7812V65.7812H137.026V62.7812ZM126.464 62.7812L123.531 62.1499L121.547 71.3687L124.48 72L127.412 72.6313L129.397 63.4126L126.464 62.7812ZM124.48 72V69H114.948V72V75H124.48V72ZM131.98 36.1562L129.044 35.5385L125.138 54.101L128.073 54.7188L131.009 55.3365L134.915 36.774L131.98 36.1562ZM128.073 54.7188V57.7188H135.433V54.7188V51.7188H128.073V54.7188ZM135.433 54.7188L138.386 54.1893L135.057 35.6268L132.105 36.1562L129.152 36.6857L132.48 55.2482L135.433 54.7188ZM132.105 36.1562V33.1562H131.98V36.1562V39.1562H132.105V36.1562ZM160.519 72H157.519V75H160.519V72ZM160.519 26.4375V23.4375H157.519V26.4375H160.519ZM185.566 27.8438L184.439 30.624L184.449 30.6283L185.566 27.8438ZM191.003 32.1562L188.515 33.8326L188.52 33.8388L191.003 32.1562ZM190.878 45.75L193.285 47.5414L193.289 47.535L190.878 45.75ZM185.363 49.8594L184.299 47.0541L181.58 48.0846L182.526 50.8344L185.363 49.8594ZM192.972 72V75H197.175L195.809 71.0249L192.972 72ZM181.581 72L178.7 72.8335L179.326 75H181.581V72ZM175.878 52.2812L178.76 51.4477L178.134 49.2812H175.878V52.2812ZM172.05 52.2812V49.2812H169.05V52.2812H172.05ZM172.05 72V75H175.05V72H172.05ZM172.05 34.875V31.875H169.05V34.875H172.05ZM172.05 44.9844H169.05V47.9844H172.05V44.9844ZM179.503 35.8281L178.179 38.52L178.188 38.5242L179.503 35.8281ZM160.519 72H163.519V26.4375H160.519H157.519V72H160.519ZM160.519 26.4375V29.4375H177.675V26.4375V23.4375H160.519V26.4375ZM177.675 26.4375V29.4375C180.306 29.4375 182.543 29.8554 184.439 30.624L185.566 27.8438L186.693 25.0635C183.964 23.9571 180.941 23.4375 177.675 23.4375V26.4375ZM185.566 27.8438L184.449 30.6283C186.24 31.3461 187.56 32.4141 188.515 33.8326L191.003 32.1562L193.491 30.4799C191.822 28.0025 189.517 26.1956 186.682 25.0592L185.566 27.8438ZM191.003 32.1562L188.52 33.8388C189.427 35.178 189.972 36.9589 189.972 39.3594H192.972H195.972C195.972 36.0307 195.205 33.0095 193.487 30.4737L191.003 32.1562ZM192.972 39.3594H189.972C189.972 41.1002 189.475 42.603 188.467 43.965L190.878 45.75L193.289 47.535C195.073 45.1262 195.972 42.3685 195.972 39.3594H192.972ZM190.878 45.75L188.472 43.9586C187.433 45.3537 186.07 46.3831 184.299 47.0541L185.363 49.8594L186.426 52.6647C189.218 51.6065 191.532 49.8963 193.285 47.5414L190.878 45.75ZM185.363 49.8594L182.526 50.8344L190.135 72.9751L192.972 72L195.809 71.0249L188.2 48.8843L185.363 49.8594ZM192.972 72V69H181.581V72V75H192.972V72ZM181.581 72L184.463 71.1665L178.76 51.4477L175.878 52.2812L172.996 53.1148L178.7 72.8335L181.581 72ZM175.878 52.2812V49.2812H172.05V52.2812V55.2812H175.878V52.2812ZM172.05 52.2812H169.05V72H172.05H175.05V52.2812H172.05ZM172.05 72V69H160.519V72V75H172.05V72ZM172.05 34.875H169.05V44.9844H172.05H175.05V34.875H172.05ZM172.05 44.9844V47.9844H174.285V44.9844V41.9844H172.05V44.9844ZM174.285 44.9844V47.9844C176.93 47.9844 179.448 47.5415 181.376 46.2018C183.501 44.7244 184.456 42.4831 184.456 40H181.456H178.456C178.456 40.8398 178.216 41.0907 177.951 41.2748C177.488 41.5966 176.42 41.9844 174.285 41.9844V44.9844ZM181.456 40H184.456C184.456 37.3293 183.612 34.4951 180.819 33.132L179.503 35.8281L178.188 38.5242C178.208 38.5339 178.204 38.5351 178.198 38.5284C178.193 38.5234 178.216 38.5436 178.251 38.6197C178.332 38.7914 178.456 39.2031 178.456 40H181.456ZM179.503 35.8281L180.828 33.1362C178.937 32.2062 176.56 31.875 173.972 31.875V34.875V37.875C176.176 37.875 177.486 38.1792 178.179 38.52L179.503 35.8281ZM173.972 34.875V31.875H172.05V34.875V37.875H173.972V34.875ZM200.183 35.2656H197.183V38.2656H200.183V35.2656ZM200.183 26.4375V23.4375H197.183V26.4375H200.183ZM232.308 26.4375H235.308V23.4375H232.308V26.4375ZM232.308 35.2656V38.2656H235.308V35.2656H232.308ZM222.011 35.2656V32.2656H219.011V35.2656H222.011ZM222.011 72V75H225.011V72H222.011ZM210.48 72H207.48V75H210.48V72ZM210.48 35.2656H213.48V32.2656H210.48V35.2656ZM200.183 35.2656H203.183V26.4375H200.183H197.183V35.2656H200.183ZM200.183 26.4375V29.4375H232.308V26.4375V23.4375H200.183V26.4375ZM232.308 26.4375H229.308V35.2656H232.308H235.308V26.4375H232.308ZM232.308 35.2656V32.2656H222.011V35.2656V38.2656H232.308V35.2656ZM222.011 35.2656H219.011V72H222.011H225.011V35.2656H222.011ZM222.011 72V69H210.48V72V75H222.011V72ZM210.48 72H213.48V35.2656H210.48H207.48V72H210.48ZM210.48 35.2656V32.2656H200.183V35.2656V38.2656H210.48V35.2656Z" fill="black" mask="url(#path-2-outside-1_424_249)"/>
</svg>
