<svg width="194" height="194" viewBox="0 0 194 194" fill="none" xmlns="http://www.w3.org/2000/svg">
<g filter="url(#filter0_d_192_301)">
<circle cx="97" cy="93" r="90" fill="#00B0A9" stroke="black" stroke-width="6"/>
</g>
<path d="M112.481 72.5938L113.185 74.2588L114.985 74.416L154.526 77.8594L124.483 104.055L123.126 105.239L123.533 106.994L132.565 145.913L98.5596 125.27L97.0029 124.324L95.4463 125.27L61.4395 145.92L70.4648 107.002L70.8721 105.247L69.5137 104.063L39.4707 77.8691L79.0205 74.4248L80.8223 74.2676L81.5244 72.6016L97.0029 35.9023L112.481 72.5938Z" fill="#FFC900" stroke="black" stroke-width="6"/>
<path d="M172.99 98.1579C172.995 98.0335 172.963 97.9071 172.889 97.8042C172.816 97.7013 172.708 97.6306 172.587 97.6073C172.466 97.5839 172.34 97.6093 172.233 97.6774C172.126 97.7454 172.05 97.8509 172.008 97.9682C172.008 97.9682 172.008 97.9682 172.008 97.9682C171.716 98.7901 171.417 99.6271 171.115 100.469C168.342 108.091 165.535 115.569 162.538 122.895C159.611 129.901 156.675 136.872 152.265 143.12C151.759 143.824 151.224 144.52 150.669 145.189C150.59 145.284 150.538 145.404 150.534 145.53C150.529 145.656 150.571 145.778 150.652 145.87C150.733 145.962 150.849 146.02 150.974 146.031C151.1 146.043 151.225 146.006 151.33 145.94C151.33 145.94 151.33 145.94 151.33 145.94C152.087 145.454 152.831 144.916 153.545 144.348C159.848 139.249 164.129 132.098 167.162 124.797C170.299 117.13 172.146 109.027 172.823 100.838C172.897 99.9341 172.953 99.037 172.99 98.1579Z" fill="white"/>
<defs>
<filter id="filter0_d_192_301" x="0" y="0" width="194" height="194" filterUnits="userSpaceOnUse" color-interpolation-filters="sRGB">
<feFlood flood-opacity="0" result="BackgroundImageFix"/>
<feColorMatrix in="SourceAlpha" type="matrix" values="0 0 0 0 0 0 0 0 0 0 0 0 0 0 0 0 0 0 127 0" result="hardAlpha"/>
<feOffset dy="4"/>
<feGaussianBlur stdDeviation="2"/>
<feComposite in2="hardAlpha" operator="out"/>
<feColorMatrix type="matrix" values="0 0 0 0 0 0 0 0 0 0 0 0 0 0 0 0 0 0 0.25 0"/>
<feBlend mode="normal" in2="BackgroundImageFix" result="effect1_dropShadow_192_301"/>
<feBlend mode="normal" in="SourceGraphic" in2="effect1_dropShadow_192_301" result="shape"/>
</filter>
</defs>
</svg>
